<?xml version="1.0" standalone="no"?>
<!DOCTYPE svg PUBLIC "-//W3C//DTD SVG 20010904//EN"
 "http://www.w3.org/TR/2001/REC-SVG-20010904/DTD/svg10.dtd">
<svg version="1.0" xmlns="http://www.w3.org/2000/svg"
 width="1024.000000pt" height="1024.000000pt" viewBox="0 0 1024.000000 1024.000000"
 preserveAspectRatio="xMidYMid meet">
<metadata>
Created by potrace 1.16, written by Peter Selinger 2001-2019
</metadata>
<g transform="translate(0.000000,1024.000000) scale(0.100000,-0.100000)"
fill="#000000" stroke="none">
<path d="M5220 9119 c-513 -20 -1087 -161 -1545 -378 -405 -193 -841 -497
-1121 -782 -446 -454 -779 -987 -975 -1559 -115 -334 -210 -843 -221 -1177
l-2 -83 -173 0 -173 0 0 -880 0 -880 294 0 293 0 31 -72 c196 -467 519 -942
873 -1283 235 -227 564 -477 839 -637 415 -243 925 -427 1390 -502 66 -11 100
-22 116 -36 29 -28 117 -55 229 -70 111 -15 682 -8 764 10 59 13 124 42 156
70 13 11 73 27 170 45 446 82 953 279 1330 516 55 34 131 82 170 106 l69 43
126 0 c151 0 218 16 267 65 28 28 33 40 33 82 0 42 5 54 31 79 45 43 71 100
77 172 l5 63 107 112 c59 62 130 139 156 171 27 32 59 71 71 85 l22 26 31 -37
c17 -21 37 -38 45 -38 7 0 27 19 44 42 l31 42 -30 53 -31 54 64 97 c112 169
135 209 201 339 68 136 136 290 158 361 l13 42 205 2 c113 1 237 2 275 3 l70
1 3 877 2 877 -145 0 -145 0 0 33 c0 73 -22 311 -40 444 -37 264 -92 518 -152
704 -31 94 -31 97 -15 132 45 94 -6 221 -145 357 -77 75 -96 103 -175 245
-210 377 -396 621 -717 940 l-191 189 -3 97 c-4 89 -2 100 20 129 l23 32 -25
17 c-59 39 -92 77 -125 147 -29 59 -43 78 -76 96 -36 21 -40 26 -36 54 6 38
-5 57 -29 52 -15 -3 -19 -11 -16 -45 2 -37 -1 -42 -31 -56 -41 -20 -71 -60
-98 -131 -32 -86 -33 -86 -203 16 -491 294 -1164 498 -1723 523 -65 3 -149 7
-188 8 -38 2 -153 0 -255 -4z m520 -140 c268 -25 554 -81 790 -155 103 -32
359 -123 369 -131 8 -6 -32 -43 -46 -43 -8 0 -11 -5 -7 -11 9 -14 -26 -4 -211
64 -112 41 -273 88 -365 107 -47 10 -128 27 -180 38 -206 45 -419 66 -690 66
-271 1 -397 -10 -650 -59 -69 -13 -149 -26 -177 -30 -51 -5 -267 -66 -308 -85
-36 -18 -282 -90 -304 -90 -12 0 -30 -4 -40 -9 -12 -7 -26 -4 -50 11 l-33 21
92 39 c116 48 339 120 492 159 442 111 891 148 1318 108z m2008 -318 c12 -7
17 -22 17 -58 0 -26 5 -51 10 -55 6 -4 2 -8 -8 -8 -10 0 -15 -4 -12 -10 3 -5
16 -10 29 -10 27 0 98 -33 116 -54 17 -22 5 -20 -28 4 -15 10 -47 24 -72 31
-38 9 -52 8 -95 -8 -67 -25 -78 -50 -79 -180 l-1 -103 -27 0 c-14 0 -33 -3
-42 -6 -14 -5 -16 6 -16 89 l0 95 30 11 c17 5 30 17 30 25 0 12 -5 13 -31 4
-21 -7 -34 -7 -41 0 -7 7 6 22 41 48 38 28 55 51 72 91 12 29 35 64 51 78 33
28 33 28 56 16z m-2213 -23 c129 -27 298 -159 357 -278 87 -174 74 -400 -32
-556 -18 -27 -33 -55 -33 -62 0 -6 -2 -10 -5 -8 -2 2 -11 -2 -20 -9 -10 -8
-37 -30 -61 -50 -24 -20 -57 -43 -73 -51 -15 -8 -28 -21 -28 -29 0 -7 -5 -17
-10 -20 -6 -4 -9 -1 -8 6 2 7 -6 14 -17 16 -16 3 -17 2 -5 -6 13 -9 13 -11 -2
-11 -10 0 -18 -4 -18 -10 0 -5 -6 -7 -14 -4 -8 3 -16 -4 -20 -20 -5 -19 -13
-26 -32 -26 -31 0 -73 -21 -98 -49 l-20 -22 45 7 c24 3 54 13 66 20 31 19 36
18 29 -8 -4 -13 -9 -34 -12 -47 -8 -36 -37 -82 -49 -77 -7 2 -16 -4 -22 -14
-6 -9 -26 -20 -43 -24 -28 -5 -31 -8 -19 -22 11 -14 10 -15 -6 -12 -16 2 -20
-3 -20 -25 0 -20 -9 -36 -30 -53 -23 -18 -26 -24 -12 -24 9 0 17 5 17 10 0 6
5 10 11 10 14 0 220 146 214 152 -2 2 5 5 17 5 32 3 33 10 15 80 -16 62 -16
83 3 83 8 0 31 -64 45 -123 4 -21 10 -27 21 -23 9 3 21 6 28 6 11 0 10 12 -2
55 -11 39 -18 52 -25 43 -6 -9 -7 -8 -3 5 3 10 -1 29 -10 43 -16 23 -16 24 10
24 14 0 26 -5 26 -11 0 -5 5 -7 12 -3 7 4 8 3 4 -5 -4 -6 -4 -17 1 -24 5 -7
19 -39 32 -72 30 -76 43 -91 67 -76 11 6 13 11 6 11 -7 0 -15 6 -17 13 -2 6
-10 26 -16 42 -7 17 -12 42 -12 58 0 15 -2 27 -6 27 -7 0 -30 50 -36 78 -2 15
1 19 14 15 10 -3 28 -28 40 -59 14 -32 27 -51 34 -47 5 3 8 2 4 -3 -8 -14 20
-47 34 -38 8 4 10 3 5 -5 -4 -6 0 -18 8 -27 19 -19 12 -34 -15 -34 -10 0 -19
-4 -19 -9 0 -6 20 -3 45 6 41 14 44 17 34 36 -31 60 -65 106 -76 102 -7 -2
-10 2 -6 11 3 9 -6 27 -22 44 -25 26 -27 50 -5 50 6 0 22 -19 37 -41 67 -101
79 -117 96 -134 10 -9 20 -15 23 -13 8 8 -38 101 -79 160 -25 37 -37 63 -33
74 6 15 8 14 25 -5 10 -11 21 -21 25 -21 3 0 32 -26 65 -58 32 -32 64 -56 71
-54 7 3 17 -3 22 -12 5 -9 13 -16 18 -16 6 0 0 12 -13 27 -64 76 -80 93 -84
89 -2 -2 -24 17 -48 43 -33 36 -43 53 -38 69 6 26 23 29 23 5 0 -26 166 -177
174 -158 3 8 1 17 -5 20 -5 4 -6 11 -3 17 4 7 2 8 -5 4 -6 -4 -8 -12 -5 -18 5
-7 2 -8 -5 -4 -7 5 -10 15 -7 23 4 11 2 13 -9 9 -13 -4 -14 -2 -5 14 9 16 8
18 -6 13 -10 -4 -15 -2 -11 3 3 5 -6 18 -21 28 -48 34 -86 85 -73 100 6 7 9
16 6 19 -3 4 -2 5 1 3 3 -2 6 -8 6 -13 -1 -14 30 -43 45 -43 8 0 12 -4 8 -9
-3 -5 10 -14 29 -21 19 -6 37 -17 40 -25 3 -8 12 -12 21 -9 8 3 15 1 15 -4 0
-6 16 -14 35 -18 19 -3 35 -11 35 -16 0 -6 6 -8 13 -5 15 5 39 -18 29 -29 -4
-4 1 -4 10 -1 10 3 20 2 23 -3 4 -6 12 -10 18 -10 7 0 6 4 -3 10 -8 5 -11 10
-6 10 12 0 -61 52 -105 76 -19 10 -38 17 -43 16 -4 -2 -13 4 -20 12 -6 8 -33
27 -61 42 -64 35 -81 52 -67 66 7 7 20 3 44 -13 32 -24 55 -37 113 -67 16 -9
45 -26 63 -38 19 -13 40 -20 49 -17 10 4 14 2 10 -4 -4 -6 3 -8 20 -5 18 3 24
1 19 -7 -9 -14 -7 -14 33 0 24 9 29 14 19 20 -7 5 -8 9 -3 9 6 0 16 -4 24 -9
11 -7 9 -10 -8 -16 -24 -7 -28 -30 -6 -39 13 -4 14 -10 5 -26 -9 -17 -8 -20 9
-20 30 0 51 -11 62 -32 7 -13 7 -18 1 -14 -6 3 -21 2 -34 -3 -21 -9 -21 -10
-3 -11 l20 -1 -20 -9 c-12 -5 -15 -9 -5 -9 10 -1 11 -4 3 -12 -7 -7 -9 -25 -6
-42 4 -19 2 -28 -4 -24 -5 3 -9 -4 -8 -16 1 -12 -4 -34 -12 -49 -20 -41 -8
-34 18 10 12 20 24 39 25 41 7 9 33 -22 27 -32 -3 -6 -1 -7 6 -3 6 4 18 0 27
-8 8 -9 24 -16 35 -16 10 0 19 -4 19 -9 0 -5 -9 -7 -19 -4 -16 4 -19 1 -14
-19 4 -12 13 -28 21 -34 8 -6 12 -16 8 -22 -5 -8 -2 -10 8 -6 9 3 16 15 16 25
0 23 28 25 37 3 8 -21 -10 -36 -87 -69 -36 -15 -73 -34 -82 -43 -12 -10 -18
-11 -18 -4 0 7 -5 12 -11 12 -6 0 -8 -9 -4 -21 5 -14 1 -25 -12 -34 -10 -7
-15 -16 -12 -19 3 -3 15 3 27 14 22 21 29 16 14 -7 -12 -19 -83 -46 -127 -48
-22 -1 -51 -5 -65 -9 -24 -8 -25 -8 -5 9 20 16 20 16 -5 11 -14 -2 -42 -8 -62
-11 -28 -5 -35 -11 -31 -23 4 -13 3 -14 -5 -3 -5 7 -7 22 -5 32 4 13 0 19 -11
19 -10 0 -15 4 -12 9 9 14 -16 29 -49 29 -35 0 -58 -15 -48 -32 3 -6 3 -8 -1
-4 -10 8 -36 -14 -29 -24 4 -8 -9 -9 -142 -10 l-80 0 85 -9 c47 -5 91 -7 98
-4 6 2 12 1 12 -4 0 -4 16 -16 35 -26 19 -11 32 -21 30 -23 -2 -3 -20 5 -40
17 -37 22 -158 32 -125 11 8 -5 31 -10 50 -10 19 0 42 -5 50 -10 10 -7 -30 -9
-130 -6 -165 6 -180 7 -174 18 3 4 0 8 -6 8 -6 0 -22 11 -35 24 l-25 25 23 4
c19 4 18 4 -5 6 -16 0 -28 5 -28 10 0 5 9 7 19 4 11 -3 27 -1 36 5 14 7 12 9
-11 8 -16 0 -40 3 -54 7 -18 6 -21 6 -10 -2 22 -15 5 -24 -19 -9 -18 11 -28 9
-78 -17 -32 -16 -64 -29 -70 -28 -7 0 -13 -3 -13 -8 0 -5 -7 -6 -15 -3 -8 4
-15 2 -15 -4 0 -6 -9 -8 -20 -5 -16 4 -19 2 -14 -12 6 -14 3 -16 -14 -10 -13
4 -22 2 -22 -4 0 -6 8 -11 18 -11 14 0 12 -4 -8 -20 -14 -11 -28 -20 -32 -20
-4 0 -17 -8 -28 -17 -32 -28 -70 -28 -97 1 -16 18 -19 26 -10 26 8 0 22 -10
31 -22 9 -13 14 -18 11 -11 -3 6 3 16 12 22 27 14 9 25 -48 27 -28 1 -54 6
-58 12 -3 5 -22 17 -41 26 -19 9 -27 14 -17 11 10 -3 16 -1 13 4 -3 5 1 14 9
21 8 7 15 16 15 21 0 14 -24 10 -46 -7 -18 -14 -18 -15 5 -4 18 9 22 9 19 -1
-2 -6 -14 -16 -27 -20 -14 -6 -20 -5 -16 1 3 6 1 10 -5 10 -6 0 28 37 76 83
48 45 91 81 96 79 5 -1 7 2 3 7 -3 6 17 34 45 63 46 47 59 68 45 68 -14 0 -65
-32 -65 -40 0 -6 -5 -10 -11 -10 -13 0 -109 -96 -109 -109 0 -5 -6 -11 -13
-14 -9 -3 -14 7 -16 36 -3 50 -6 55 -32 39 -11 -7 -25 -10 -31 -6 -7 5 -8 2
-3 -6 6 -10 4 -12 -8 -7 -9 3 -19 2 -22 -3 -4 -6 -15 -10 -26 -10 -10 0 -19
-5 -19 -11 0 -5 -4 -8 -9 -4 -5 3 -12 1 -16 -5 -3 -5 -17 -7 -30 -4 -28 7 -68
-12 -60 -29 4 -7 -1 -3 -9 7 -18 22 -21 14 -7 -13 13 -24 -29 -74 -55 -65 -14
4 -16 3 -5 -4 16 -12 7 -18 -39 -27 -33 -6 -37 -4 -53 29 -9 20 -15 41 -13 48
1 7 1 10 -1 6 -2 -3 -28 18 -58 49 -50 52 -52 56 -40 80 8 14 17 49 20 77 4
28 14 64 22 79 13 26 13 31 -3 48 -9 10 -12 19 -6 19 6 0 14 -4 17 -10 14 -23
52 -2 146 79 45 39 60 37 28 -3 -12 -15 -18 -30 -15 -34 4 -3 11 -1 15 7 6 10
10 9 14 -4 4 -9 3 -14 -2 -11 -4 3 -18 -5 -30 -18 -13 -13 -18 -27 -13 -30 6
-3 13 1 16 10 3 8 10 12 16 9 6 -4 7 1 3 12 -3 10 -2 15 2 10 5 -4 16 0 26 9
16 14 18 14 29 -5 9 -18 6 -28 -18 -64 -17 -23 -42 -55 -56 -70 -33 -36 -33
-39 3 -21 29 15 60 44 46 44 -4 0 4 11 18 24 17 15 24 31 21 40 -7 19 -3 20
30 4 22 -9 24 -14 13 -26 -10 -13 -9 -14 9 -4 12 6 24 9 27 6 3 -3 17 2 32 12
l26 17 -39 22 c-21 12 -61 40 -89 61 -27 21 -61 48 -75 58 -22 17 -24 21 -12
33 12 12 23 11 76 -8 60 -22 62 -22 72 -4 6 10 26 36 45 57 40 45 32 50 -16 8
-33 -30 -63 -39 -63 -20 0 5 10 15 23 21 12 6 35 27 50 45 16 19 32 34 37 34
5 0 15 -13 23 -29 14 -28 13 -32 -15 -70 -16 -23 -35 -41 -41 -41 -5 0 -7 -3
-4 -6 4 -4 14 -1 23 7 9 7 28 15 43 16 l26 3 -29 -26 c-34 -30 -45 -70 -15
-51 13 8 23 6 43 -6 14 -10 26 -13 26 -7 0 5 5 10 10 10 15 0 12 -16 -6 -35
-9 -8 -24 -14 -33 -11 -10 3 -25 -7 -39 -25 -15 -18 -19 -29 -11 -29 8 0 5 -7
-7 -16 -19 -15 -19 -16 1 -10 19 6 19 6 1 -8 -26 -21 -14 -51 15 -36 11 7 18
18 15 25 -3 9 0 12 9 9 10 -4 13 0 10 15 -2 12 1 20 8 18 7 -1 11 4 9 11 -1 8
2 11 6 8 16 -10 51 44 67 102 10 34 23 26 22 -13 -1 -19 -4 -30 -8 -24 -9 15
-21 -35 -13 -55 5 -12 2 -15 -10 -10 -9 3 -16 2 -16 -4 0 -6 -11 -23 -24 -39
-13 -16 -26 -48 -29 -73 l-6 -45 19 25 c11 14 20 29 20 33 0 5 4 5 10 2 6 -3
7 1 4 9 -3 9 -1 16 6 16 6 0 9 4 6 8 -3 5 6 25 19 45 28 40 31 52 13 41 -7 -4
-11 -5 -8 -1 3 3 10 6 15 7 6 1 18 9 28 17 26 25 21 1 -18 -80 -19 -40 -37
-88 -40 -107 -4 -29 -3 -31 4 -10 l9 25 2 -25 1 -25 11 23 c6 12 16 22 23 22
22 0 35 22 22 39 -9 12 -9 13 1 7 8 -5 12 -1 12 11 0 10 5 25 11 33 8 11 9 9
3 -10 -3 -14 -3 -22 1 -18 4 4 10 22 14 39 8 39 31 51 31 16 0 -13 -7 -43 -15
-66 -8 -22 -11 -41 -7 -41 4 0 0 -5 -8 -10 -13 -8 -13 -10 2 -10 9 0 24 3 33
6 13 6 14 9 3 16 -9 7 -8 9 7 5 22 -4 25 7 27 93 1 25 3 37 5 28 3 -10 9 -18
14 -18 6 0 8 4 5 9 -4 5 3 7 14 4 11 -3 20 -10 20 -15 0 -5 -4 -6 -10 -3 -5 3
-10 2 -10 -4 0 -16 22 -25 29 -12 4 7 8 -2 8 -19 0 -16 -4 -30 -9 -30 -5 0 -6
5 -3 10 3 6 2 10 -3 10 -15 0 -19 -22 -11 -55 4 -16 7 -23 8 -15 2 9 6 6 12
-8 5 -13 6 -29 2 -34 -3 -7 -1 -8 5 -4 7 4 12 34 12 72 0 35 3 64 8 64 4 0 27
-10 51 -22 32 -17 45 -20 48 -10 3 7 10 18 17 25 15 15 -1 36 -22 29 -6 -2
-12 3 -12 11 0 9 8 18 18 20 9 3 -11 5 -44 6 -34 0 -76 4 -95 8 -29 5 -30 7
-14 15 14 6 10 7 -15 3 -27 -4 -31 -2 -17 6 15 9 7 15 -52 45 -209 104 -319
319 -290 561 19 153 102 279 247 374 138 90 268 113 437 77z m1416 -261 c-3
-205 0 -281 8 -291 10 -12 8 -19 -8 -35 -18 -18 -21 -34 -21 -96 l0 -75 40 0
c40 0 40 0 40 39 0 43 8 71 20 71 17 0 29 -135 30 -336 1 -180 -2 -213 -15
-224 -14 -12 -15 7 -13 202 l3 216 -44 6 c-24 3 -69 6 -99 6 l-55 0 7 38 c3
20 6 45 6 55 0 9 7 17 15 17 11 0 15 -12 15 -45 0 -54 24 -63 34 -12 6 35 -3
80 -25 116 -12 19 -12 24 4 35 15 12 18 39 22 242 3 149 1 240 -6 261 -8 27
-7 38 8 63 9 17 22 29 28 27 7 -3 9 -96 6 -280z m-3240 214 c-12 -16 -21 -34
-21 -39 0 -5 -16 -17 -36 -27 -24 -11 -32 -20 -25 -25 8 -5 4 -12 -13 -23 -14
-10 -28 -17 -31 -17 -3 0 -42 -22 -86 -50 -44 -27 -85 -50 -90 -50 -5 0 -9 -4
-9 -10 0 -5 -5 -10 -11 -10 -6 0 -28 -13 -49 -30 -21 -16 -41 -30 -45 -30 -3
0 -26 -13 -49 -30 -24 -16 -47 -26 -51 -22 -5 4 -5 2 -2 -4 6 -11 -52 -64 -68
-64 -6 0 -35 -21 -84 -61 -7 -7 -33 -14 -57 -17 -35 -4 -45 -1 -50 13 -9 22
13 41 216 184 180 126 322 213 470 287 58 29 106 53 108 53 2 1 -6 -12 -17
-28z m3498 -52 c86 -45 176 -95 201 -112 71 -47 93 -84 45 -75 -20 4 -23 3
-14 -8 9 -11 8 -14 -4 -14 -22 0 -63 19 -124 57 -29 18 -56 33 -62 33 -5 0
-22 10 -38 23 -15 13 -49 36 -75 51 -48 27 -64 44 -30 32 9 -4 1 8 -19 26
-100 91 -75 89 120 -13z m584 -83 c56 -23 69 -47 80 -147 8 -74 7 -93 -4 -99
-11 -7 -11 -13 1 -34 10 -20 12 -58 7 -169 -3 -79 -9 -151 -13 -160 -5 -15
-26 -17 -176 -17 l-170 0 7 38 c3 20 9 95 13 167 l7 129 35 7 c19 4 36 6 37 5
1 -1 4 -76 5 -165 l3 -164 90 2 c49 1 96 6 105 12 9 5 -12 7 -60 4 -78 -5 -75
-2 23 17 36 7 57 16 57 24 0 11 -20 14 -82 16 -66 1 -71 2 -28 5 38 3 50 7 40
14 -12 7 -11 9 5 7 11 0 30 0 43 0 l22 2 -2 163 -3 162 -32 0 c-29 0 -33 -3
-33 -27 0 -15 -5 -30 -11 -34 -8 -4 -10 8 -8 40 4 43 2 46 -25 56 -16 5 -30
10 -32 10 -1 0 0 -10 4 -22 5 -22 5 -22 -25 2 -26 21 -30 31 -27 63 3 43 16
62 59 89 36 22 46 22 88 4z m-3735 -192 c18 -4 31 -12 29 -18 -3 -8 -78 -10
-263 -7 -142 2 -263 6 -268 9 -24 14 46 20 249 21 121 1 235 -1 253 -5z m3218
-39 c12 -29 20 -36 55 -41 l41 -7 -27 -21 c-24 -19 -26 -27 -20 -55 8 -37 0
-36 -42 2 -22 19 -22 19 -50 -7 -15 -14 -31 -26 -34 -26 -4 0 -5 18 -2 40 5
38 4 40 -26 46 -44 9 -38 21 14 28 35 6 45 11 45 26 0 26 10 50 22 50 5 0 16
-16 24 -35z m-3301 -60 c-4 -85 -17 -279 -21 -307 -7 -47 -24 -50 -24 -4 0 32
-21 66 -40 66 -5 0 -10 -19 -12 -42 -2 -23 -8 -43 -14 -45 -15 -5 -1 93 21
138 14 29 15 40 6 55 -11 17 -11 17 -6 -4 9 -30 -23 -82 -36 -61 -8 12 -11 12
-19 -1 -7 -11 -8 -8 -6 12 1 15 8 34 16 42 10 13 10 16 -4 16 -26 0 -42 -44
-28 -76 7 -14 8 -23 2 -19 -5 3 -10 2 -10 -4 0 -5 5 -13 10 -16 6 -4 8 -11 4
-16 -7 -12 -34 8 -34 25 0 7 -9 12 -20 13 -19 2 -23 -5 -35 -64 -6 -29 -24
-47 -25 -25 0 4 -7 52 -15 107 -8 55 -15 126 -15 157 l0 57 123 4 c165 4 182
4 182 -8z m4321 -486 c189 -214 348 -438 448 -630 95 -182 87 -198 -14 -28
-21 36 -47 72 -57 80 -16 12 -16 11 1 -9 11 -12 17 -25 14 -28 -10 -9 -60 64
-62 90 0 13 -4 22 -8 20 -11 -7 -49 49 -43 63 2 8 1 12 -3 9 -10 -6 -45 31
-99 105 -23 31 -47 62 -55 70 -7 8 -29 34 -48 59 -19 25 -54 66 -78 91 -50 54
-92 109 -92 121 0 5 10 3 23 -3 25 -14 11 3 -122 150 -93 103 -100 112 -101
131 0 18 179 -158 296 -291z m-2186 238 c150 -61 311 -116 450 -152 158 -42
203 -56 198 -60 -3 -4 -167 37 -342 85 -112 30 -334 104 -380 126 -22 11 -42
25 -44 33 -6 17 4 14 118 -32z m-2775 -67 c84 -48 114 -73 125 -104 14 -43 20
-159 9 -177 -6 -10 -9 -10 -9 -1 0 27 -20 9 -30 -28 -13 -47 -34 -52 -86 -19
-38 23 -40 27 -19 43 8 6 19 26 25 44 8 30 7 33 -8 27 -11 -4 -9 2 7 19 14 15
21 26 16 26 -4 0 4 9 19 21 21 17 24 24 15 35 -6 8 -17 14 -23 14 -6 0 -5 -4
3 -9 9 -6 10 -11 2 -15 -11 -7 -15 5 -12 31 1 7 -13 20 -31 29 -18 9 -37 23
-41 31 -5 7 -12 11 -16 8 -21 -12 -65 72 -54 101 5 13 12 10 37 -19 17 -19 49
-45 71 -57z m1499 21 c13 -25 13 -31 0 -50 -8 -11 -12 -21 -8 -21 3 0 1 -7 -6
-15 -7 -8 -15 -13 -19 -11 -8 5 -107 -26 -143 -44 -41 -22 -4 10 49 41 58 35
41 38 -25 5 -26 -13 -58 -22 -72 -19 -19 3 -22 1 -12 -9 19 -19 14 -33 -5 -16
-25 21 -41 12 -37 -20 2 -15 1 -19 -2 -9 -6 19 -24 23 -24 5 0 -6 -3 -8 -7 -5
-9 10 47 67 65 67 8 0 12 6 9 14 -6 15 32 46 55 46 7 0 45 16 83 35 39 19 73
34 77 35 4 0 14 -13 22 -29z m1229 -5 c91 -44 130 -60 140 -57 5 1 20 -5 35
-14 55 -31 195 -85 322 -125 73 -23 130 -43 128 -46 -7 -6 -245 63 -333 97
-44 17 -104 37 -132 45 -73 19 -253 105 -253 121 0 20 15 16 93 -21z m-3405
-109 c34 -56 62 -106 62 -112 0 -5 -15 6 -34 24 -19 18 -36 28 -40 23 -10 -16
-56 -6 -79 17 -12 12 -16 21 -9 21 7 0 12 5 12 10 0 6 -30 10 -70 10 -95 0
-93 24 3 50 28 8 55 23 65 36 9 13 19 24 22 24 3 0 33 -46 68 -103z m4256 27
c3 -9 6 -216 6 -460 0 -366 -2 -444 -14 -444 -9 0 -15 25 -20 95 -8 119 -7
810 1 819 11 10 21 7 27 -10z m837 6 c160 0 199 -3 199 -14 0 -15 -118 -26
-295 -26 -62 0 -134 -3 -161 -7 l-49 -8 50 -7 c33 -4 21 -5 -35 -2 -47 2 -91
4 -98 4 -7 0 -10 5 -7 10 3 6 39 10 80 10 70 0 73 1 79 26 5 18 12 24 22 20 9
-3 105 -6 215 -6z m-21 -112 c0 -6 9 -8 20 -5 11 3 20 1 20 -4 0 -5 7 -9 16
-9 9 0 12 5 8 12 -4 7 -3 8 5 4 6 -4 9 -11 6 -16 -3 -4 4 -19 14 -31 18 -22
20 -22 26 -6 19 47 25 0 25 -190 0 -115 4 -213 8 -220 4 -6 41 -13 89 -15 52
-2 79 1 75 7 -3 5 -9 31 -12 58 -6 41 -4 47 9 41 9 -3 32 -11 51 -16 19 -6 43
-16 53 -23 16 -11 11 -12 -34 -8 -52 4 -53 4 -36 -15 11 -12 15 -26 11 -37 -6
-14 -4 -16 6 -10 10 6 12 4 6 -11 -5 -10 -9 -74 -11 -140 -1 -67 -5 -126 -9
-132 -3 -6 -1 -23 5 -39 8 -23 8 -26 -3 -15 -9 9 -15 58 -20 150 -4 75 -9 145
-10 155 -2 15 -14 17 -103 15 -80 -1 -91 -3 -55 -8 32 -6 22 -7 -36 -4 -46 2
-84 0 -90 -6 -11 -11 -150 -17 -161 -7 -6 7 53 11 92 7 11 -1 16 2 12 6 -4 4
-59 7 -122 5 -126 -3 -158 13 -51 24 l65 7 -6 213 -6 213 41 29 c40 29 102 42
102 21z m-3322 -46 c2 -12 -7 -35 -19 -51 l-22 -30 33 -32 c29 -30 31 -34 14
-40 -11 -4 -32 -8 -48 -8 -31 -1 -116 -37 -129 -55 -10 -15 -3 26 8 44 8 13 6
13 -8 2 -9 -8 -15 -19 -14 -24 1 -6 -3 -12 -10 -15 -26 -10 2 39 36 63 l36 25
-30 -7 c-28 -6 -29 -5 -14 10 9 10 33 23 55 31 30 10 41 20 51 50 23 66 54 85
61 37z m-544 -164 c9 -78 18 -598 9 -598 -28 1 -31 24 -35 295 -5 280 -3 345
13 345 4 0 10 -19 13 -42z m-1531 -54 c-3 -8 -9 -12 -13 -9 -5 3 -12 0 -16 -6
-4 -8 -3 -9 4 -5 7 4 12 5 12 1 0 -20 -103 -204 -167 -298 -69 -100 -138 -217
-196 -332 -11 -22 -25 -43 -31 -47 -6 -4 -8 -8 -4 -8 4 0 -7 -30 -23 -67 -50
-111 -55 -126 -74 -183 -10 -30 -26 -73 -36 -94 -11 -22 -19 -51 -19 -65 0
-21 -2 -23 -10 -11 -8 12 -10 9 -10 -14 0 -15 -16 -92 -35 -170 -43 -175 -76
-332 -78 -371 -1 -16 -5 -33 -9 -36 -5 -3 -11 -41 -15 -85 l-8 -79 -6 100 -5
100 -4 -150 c-3 -117 -5 -137 -10 -90 -6 53 -7 55 -8 18 -3 -57 -25 -187 -33
-193 -4 -3 -9 -14 -12 -25 -3 -11 -4 12 -2 50 5 66 4 68 -9 40 -14 -29 -14
-27 -10 35 14 179 65 486 109 662 30 117 97 322 147 448 104 262 338 672 499
876 62 78 63 78 70 50 4 -15 5 -34 2 -42z m2073 -22 c-4 -30 -9 -59 -12 -63
-8 -13 -48 -11 -63 4 -10 10 -12 2 -9 -37 3 -48 4 -50 45 -64 58 -19 108 -79
135 -163 l22 -68 -26 -48 c-29 -52 -56 -72 -44 -32 14 47 18 98 7 116 -9 16
-10 15 -11 -7 0 -26 -38 -112 -63 -143 -8 -10 -24 -19 -36 -20 -12 -1 -21 -5
-21 -10 0 -5 -6 -7 -14 -4 -8 3 -27 -3 -41 -15 -17 -13 -30 -17 -36 -11 -6 6
15 26 58 54 66 43 113 96 113 127 0 11 -9 7 -30 -13 -17 -16 -30 -23 -30 -16
0 11 -3 11 -15 1 -13 -11 -15 -10 -11 1 3 8 2 30 -2 49 l-8 35 -9 -45 -9 -45
-6 55 c-4 30 -7 42 -8 27 -1 -18 -7 -27 -14 -24 -8 2 -12 16 -10 32 2 15 -2
31 -7 35 -6 3 -12 25 -13 49 -1 23 -5 44 -10 47 -14 9 -9 37 12 59 10 11 27
50 36 85 9 36 21 70 27 77 22 22 68 41 89 35 18 -4 20 -10 14 -60z m-1796 -24
c-29 -55 -43 -72 -61 -73 -13 -1 -62 -6 -109 -10 -47 -4 -82 -4 -77 0 10 11
77 34 102 36 11 1 2 6 -20 12 -22 5 -45 16 -52 23 -20 19 26 50 95 65 31 6 62
13 67 14 6 2 29 4 51 4 l41 1 -37 -72z m843 15 c14 -16 36 -50 48 -77 24 -56
39 -174 21 -162 -7 4 -12 14 -12 21 0 13 -11 42 -47 120 -11 26 -12 6 -7 -155
6 -165 5 -187 -10 -199 -14 -12 -16 -11 -16 8 0 11 -6 20 -12 19 -9 -2 -15 18
-19 62 -3 36 -11 97 -17 135 -6 39 -14 102 -18 140 -4 45 -9 63 -14 51 -6 -19
-7 -19 -12 2 -4 12 -2 22 3 22 5 0 9 9 9 20 0 33 69 28 103 -7z m-424 -118
c-40 -66 -99 -126 -106 -107 -3 6 -8 10 -12 8 -9 -6 -102 18 -127 32 -18 11
-18 11 1 12 11 0 48 -5 81 -10 39 -6 71 -7 85 -1 20 8 14 10 -31 11 -30 1 -73
7 -95 15 l-40 13 65 2 c64 2 64 2 25 12 -22 5 -60 12 -85 16 l-45 7 35 13 c19
8 86 17 148 21 62 5 116 11 119 15 4 3 8 4 11 1 3 -2 -10 -29 -29 -60z m4376
28 c-4 -21 -10 -39 -13 -40 -4 -2 -6 -100 -4 -218 l3 -215 -25 0 -26 0 0 175
c0 125 -3 175 -11 175 -7 0 0 11 16 26 15 14 25 27 23 30 -3 2 -27 -6 -54 -18
-32 -15 -43 -23 -31 -26 9 -2 17 -10 17 -17 0 -7 3 -21 7 -31 3 -10 2 -15 -3
-12 -5 4 -9 -23 -10 -61 -1 -91 -14 -214 -24 -231 -19 -30 -25 8 -28 168 -1
92 -5 183 -8 203 -5 31 -2 39 28 64 37 32 104 64 132 65 16 0 17 -5 11 -37z
m-796 -174 c1 -96 -7 -115 -57 -121 -38 -5 -41 -2 -52 60 l-8 47 -1 -64 -1
-63 60 4 60 4 0 -62 c0 -58 -2 -62 -27 -72 -16 -6 -47 -14 -70 -17 l-42 -7 0
169 1 169 53 28 c29 15 57 35 61 44 12 29 22 -23 23 -119z m-1718 80 c-31 -27
-40 -49 -22 -49 6 0 13 5 16 10 7 12 35 14 35 2 0 -13 -59 -44 -71 -36 -7 4
-10 1 -7 -7 4 -11 -20 -33 -102 -93 -8 -6 -6 0 4 12 l20 23 -30 -14 c-45 -20
-94 -51 -94 -59 0 -5 -7 -8 -15 -8 -8 0 -24 -9 -36 -21 -26 -26 -33 -19 -25
23 6 28 18 40 84 78 49 29 82 56 92 75 8 17 16 32 18 34 1 3 8 -1 14 -7 16
-16 28 -15 28 1 0 8 18 22 40 32 22 10 45 24 51 31 6 8 16 11 21 8 5 -4 -4
-19 -21 -35z m-689 -26 c23 -21 23 -28 -7 -148 -14 -55 -25 -118 -25 -140 0
-22 -5 -47 -10 -55 -8 -12 -10 -9 -10 14 0 20 -4 27 -14 23 -20 -8 -27 31 -22
123 6 121 25 198 47 185 5 -4 9 -1 9 4 0 16 11 14 32 -6z m4151 -24 c34 -17
99 -54 144 -81 86 -51 124 -96 138 -163 5 -23 0 -19 -20 20 -32 60 -46 77 -38
45 l6 -24 -31 23 c-17 12 -34 26 -37 31 -3 6 -15 15 -27 21 -11 6 -18 7 -15 2
3 -4 30 -48 61 -97 31 -49 56 -93 56 -98 0 -5 -26 22 -57 59 -62 74 -186 184
-176 155 4 -9 22 -38 40 -63 42 -59 42 -66 -2 -40 -19 11 -35 17 -35 13 0 -17
34 -53 65 -70 33 -17 210 -180 204 -187 -2 -2 -17 -1 -32 2 -21 4 -25 8 -15
14 9 6 7 9 -10 9 -30 0 -150 78 -189 123 -37 42 -67 120 -82 208 -21 121 -22
129 -16 129 3 0 34 -14 68 -31z m-1920 -198 c-4 -3 -8 -13 -8 -21 -1 -52 -19
-149 -26 -144 -5 3 -8 8 -5 12 9 16 16 136 10 167 -6 34 -6 34 -34 20 -38 -20
-37 -18 -56 -126 -17 -99 -42 -155 -29 -64 14 96 12 139 -7 143 -18 3 -61 -33
-70 -58 -4 -12 -8 -12 -22 3 -16 16 -21 16 -40 4 -13 -9 -23 -29 -27 -53 -3
-22 -7 -29 -8 -17 -2 41 -23 74 -43 67 -13 -4 -18 0 -18 15 0 22 100 76 295
158 l90 38 3 -69 c2 -38 -1 -72 -5 -75z m-894 51 c53 -48 130 -115 171 -149
41 -33 84 -71 95 -84 l20 -24 -20 15 c-11 8 -23 19 -26 23 -3 5 -10 9 -15 9
-20 1 -61 23 -99 53 -53 41 -70 52 -60 36 4 -8 -4 -7 -24 3 -17 9 -34 16 -38
15 -23 -4 -34 4 -52 39 -18 34 -20 35 -21 12 0 -19 -2 -22 -9 -10 -6 8 -7 19
-5 25 3 5 -6 -3 -20 -20 -14 -16 -26 -24 -26 -17 0 7 -5 10 -11 7 -6 -4 -8
-13 -5 -21 3 -8 0 -11 -10 -7 -7 3 -14 -1 -14 -8 0 -7 -3 -10 -6 -6 -4 3 -13
0 -21 -8 -8 -8 -19 -15 -25 -15 -5 0 11 19 36 41 56 50 62 74 6 27 -21 -19
-52 -40 -67 -48 -15 -8 -37 -21 -47 -30 -14 -11 -20 -12 -23 -2 -3 9 -9 7 -21
-6 -10 -9 -14 -13 -9 -8 11 15 8 28 -5 20 -8 -5 -9 -2 -5 9 8 22 5 21 -46 -3
l-42 -21 33 28 c32 27 303 212 311 213 2 0 47 -40 100 -88z m-2911 27 c51 -16
99 -29 107 -29 25 0 17 -15 -29 -58 -54 -50 -85 -67 -114 -63 -25 3 -146 70
-139 77 2 2 28 -7 58 -20 70 -31 99 -40 99 -28 0 8 -13 15 -115 58 -22 9 -33
18 -25 20 8 1 33 6 55 10 l40 7 -50 23 c-27 12 -44 23 -37 23 7 1 11 5 8 10
-8 12 37 3 142 -30z m578 -176 l7 -112 36 -5 c20 -3 120 -10 223 -17 102 -6
191 -15 196 -18 5 -3 17 -152 26 -331 9 -179 25 -467 36 -640 11 -173 20 -336
20 -361 l0 -47 -37 8 c-21 5 -250 7 -509 6 l-471 -3 -5 326 c-3 179 -2 328 1
331 7 6 8 25 16 438 l7 312 -24 9 c-20 8 -21 10 -6 16 16 6 242 -8 351 -21 50
-7 53 -4 48 51 -1 11 -5 55 -9 97 l-7 77 40 3 c22 2 43 1 47 -2 4 -3 10 -56
14 -117z m5893 -138 c13 -19 21 -38 18 -41 -3 -3 -13 6 -22 20 -10 14 -23 26
-30 26 -6 0 -20 9 -31 21 -11 13 -26 18 -39 15 -13 -4 -27 3 -44 22 l-24 27 6
-45 6 -44 -21 32 c-13 21 -22 57 -26 99 l-5 66 94 -81 c52 -45 105 -97 118
-117z m-4344 155 c220 -68 442 -157 428 -171 -5 -5 -45 3 -88 16 -44 14 -116
28 -160 31 -58 3 -83 9 -92 21 -10 13 -30 16 -95 16 l-83 -1 48 14 c26 8 47
16 47 18 0 2 -20 1 -45 -2 -53 -5 -59 3 -12 17 l32 9 -40 2 c-31 1 -35 3 -20
9 15 6 6 11 -40 20 -33 7 -69 16 -80 22 -38 18 128 1 200 -21z m-271 -35 c94
-94 175 -256 227 -455 26 -99 31 -139 36 -292 4 -122 3 -178 -5 -178 -6 0 -13
40 -17 98 -7 107 -24 265 -29 270 -2 1 -7 -58 -11 -133 -7 -136 -24 -184 -26
-77 -1 31 -4 45 -6 30 -2 -14 -11 -32 -19 -38 -8 -7 -14 -20 -14 -29 0 -12 -2
-13 -9 -3 -5 8 -3 40 4 75 18 86 27 225 17 267 -8 34 -8 34 -15 -24 -11 -84
-37 -208 -49 -226 -9 -14 -6 75 8 221 5 49 -19 214 -33 229 -3 3 -2 -42 1
-100 4 -60 2 -120 -3 -140 l-10 -35 2 38 c3 40 -9 51 -16 15 -3 -18 -5 -17 -6
6 -2 58 -42 352 -51 381 -6 20 -8 -41 -7 -183 1 -116 0 -212 -3 -212 -16 0
-44 100 -42 148 2 35 -1 51 -8 47 -6 -4 -10 4 -10 19 0 14 -4 26 -10 26 -5 0
-10 7 -10 16 0 8 -4 13 -9 9 -14 -8 -17 22 -11 87 3 32 3 58 -1 58 -4 0 -5 9
-2 20 3 11 10 17 16 13 6 -4 7 -1 2 7 -8 13 50 77 72 79 7 1 28 -15 47 -34z
m-585 -21 c26 -33 27 -60 4 -73 -10 -6 -12 -11 -5 -11 8 0 12 -19 12 -60 l0
-60 -42 0 c-33 0 -39 3 -30 12 17 17 15 38 -5 38 -13 0 -14 3 -5 12 7 7 12 22
12 35 0 14 6 23 16 23 8 0 12 5 9 10 -3 6 -22 10 -41 10 -21 0 -33 4 -29 10 3
6 30 10 58 10 l52 1 -44 22 c-58 28 -64 47 -18 47 26 0 41 -7 56 -26z m3032
14 c2 -44 -4 -172 -11 -223 -7 -51 -8 -45 -5 43 2 56 -1 102 -6 102 -7 0 -14
-255 -8 -296 0 -4 -5 -10 -11 -14 -7 -4 7 -11 32 -15 39 -7 41 -8 18 -15 -37
-12 -140 -12 -140 0 0 6 6 10 14 10 12 0 15 32 18 186 l3 186 28 24 c30 26 67
32 68 12z m-151 -35 c3 -3 -1 -8 -8 -10 -6 -3 -10 -9 -6 -14 3 -5 -3 -9 -13
-10 -16 0 -16 -1 2 -9 14 -6 4 -9 -38 -9 -40 -1 -56 -4 -51 -12 4 -7 23 -9 48
-6 22 3 35 2 27 0 -11 -5 -11 -7 0 -14 9 -5 -8 -9 -46 -9 -33 -1 -78 -5 -100
-9 l-40 -9 40 -2 c22 -1 56 -8 75 -15 l35 -13 -60 -2 c-35 0 -71 -7 -85 -16
-16 -10 -18 -13 -5 -8 11 4 38 9 60 10 22 2 -9 -9 -70 -24 -60 -16 -123 -36
-140 -45 -34 -18 -29 -22 10 -7 16 6 24 6 20 0 -3 -5 -21 -12 -40 -16 -20 -3
-38 -10 -41 -15 -8 -13 -78 -48 -106 -53 -13 -3 -23 -5 -23 -7 0 -1 -11 -3
-25 -4 -14 -1 -38 -5 -55 -9 -16 -3 -24 -3 -17 0 6 3 12 10 12 15 0 6 -8 6
-19 -1 -11 -5 -32 -10 -48 -10 l-28 0 40 33 c79 66 79 66 -8 8 -21 -14 -40
-17 -72 -13 -25 2 -50 0 -57 -6 -7 -5 -47 -13 -88 -17 -41 -4 -83 -12 -94 -17
-12 -6 -22 -6 -28 0 -6 6 -19 5 -36 -4 -15 -8 -35 -11 -46 -8 -10 3 -16 2 -13
-3 3 -5 -2 -9 -11 -9 -9 -1 -30 -4 -47 -8 -30 -6 90 55 133 68 18 6 22 3 23
-16 0 -23 0 -23 11 -2 11 24 73 51 658 286 114 46 183 58 280 52 47 -3 87 -8
90 -11z m1419 -17 c-2 -2 -165 -6 -362 -9 -197 -3 -361 -8 -364 -11 -4 -3 31
-6 77 -6 46 0 81 -2 78 -5 -5 -6 -60 -9 -295 -21 l-143 -7 0 31 0 32 507 0
c278 0 504 -2 502 -4z m-2435 -112 c100 -51 102 -57 5 -23 -101 35 -149 38
-64 3 l60 -24 -60 6 c-129 11 -277 6 -268 -10 3 -4 -10 -5 -28 -1 -19 4 -36
11 -40 16 -3 5 -19 10 -37 12 -18 2 -35 7 -39 10 -3 4 -14 7 -23 7 -9 0 -27 9
-40 20 -30 26 -24 25 66 -5 41 -14 92 -25 113 -25 30 0 156 32 216 55 21 8 70
-6 139 -41z m-764 22 c58 -13 113 -30 161 -50 10 -4 23 0 33 10 16 15 19 15
32 2 14 -14 11 -16 -25 -22 -29 -4 -58 0 -98 14 -32 11 -69 19 -83 19 l-25 -2
25 -4 c14 -2 40 -9 59 -15 57 -18 15 -28 -109 -26 -63 1 -92 3 -65 5 28 2 53
7 57 11 4 4 -10 6 -32 4 -22 -2 -40 0 -40 4 0 5 -24 7 -52 5 -57 -3 -60 6 -6
19 28 7 29 8 8 9 -14 0 -49 -6 -79 -14 -48 -12 -53 -12 -40 1 17 16 124 42
179 43 19 0 64 -6 100 -13z m3105 -77 c-104 -4 -261 -12 -347 -18 -87 -6 -257
-14 -379 -17 -164 -5 -224 -11 -234 -21 -19 -18 -22 -17 -22 12 0 52 -31 50
647 51 365 0 467 -2 335 -7z m-1445 -130 c-130 -17 -259 -57 -247 -77 3 -4
-21 -16 -54 -27 -39 -12 -55 -21 -47 -27 10 -6 9 -8 -4 -8 -9 0 -20 -5 -24
-11 -5 -8 1 -10 20 -7 18 4 24 2 18 -4 -12 -12 -212 -26 -212 -15 0 4 -8 3
-18 -2 -12 -6 -25 -5 -41 4 -16 8 -34 10 -52 5 -15 -5 -30 -5 -34 -2 -3 4 -10
1 -14 -7 -4 -7 -23 -16 -42 -21 -92 -23 -157 -43 -216 -66 -85 -34 -93 -23
-12 16 35 16 58 30 51 30 -8 0 -28 -6 -45 -14 -67 -31 -103 -42 -140 -44 -29
-2 -37 0 -31 10 5 7 -4 5 -19 -5 -15 -9 -27 -13 -27 -7 0 5 -21 10 -47 10
l-48 1 40 25 c75 47 280 142 355 165 104 31 202 29 372 -5 l136 -27 79 45 c90
52 180 73 313 73 l55 0 -65 -8z m1859 -38 c11 -7 10 -14 -5 -37 -10 -16 -23
-32 -29 -36 -14 -11 -1245 -6 -1245 5 0 5 -6 2 -13 -5 -11 -11 -13 -122 -13
-581 l1 -567 650 0 651 0 -4 553 c-3 425 -1 562 9 597 l12 45 7 -32 c10 -46
12 -446 4 -854 l-7 -356 -366 3 c-201 2 -511 4 -688 4 l-323 0 0 88 c0 48 -4
92 -8 98 -4 7 -8 -38 -8 -98 -2 -98 -6 -130 -18 -117 -2 2 -6 295 -8 652 l-4
647 695 0 c383 0 702 -4 710 -9z m271 -105 c52 -4 104 -10 115 -13 19 -6 19
-6 -2 -14 -14 -5 -21 -14 -17 -22 4 -11 -8 -16 -48 -21 -29 -4 -64 -14 -78
-22 -19 -11 -20 -13 -5 -10 11 3 56 12 100 20 44 8 91 18 105 21 l25 6 -25
-15 c-14 -8 -61 -22 -105 -31 -81 -16 -104 -25 -69 -25 10 0 26 -5 34 -11 11
-8 4 -9 -27 -6 -32 4 -43 2 -43 -9 0 -10 9 -12 33 -9 17 3 26 3 20 -1 -7 -3
-13 -12 -13 -20 0 -9 -5 -12 -12 -8 -8 5 -9 2 -4 -12 5 -12 -5 -7 -29 16 -35
34 -97 147 -111 203 l-6 28 33 -20 c24 -13 63 -21 129 -25z m-2175 19 c-44 -9
-52 -13 -30 -14 17 -2 39 -6 50 -11 17 -7 16 -9 -10 -10 -22 -2 -24 -4 -10 -7
11 -3 25 -10 30 -15 7 -8 6 -9 -1 -5 -13 7 -54 -25 -54 -42 0 -6 7 -11 15 -11
22 0 18 -17 -5 -23 -21 -5 -28 -27 -9 -27 6 0 17 -6 25 -14 12 -12 12 -16 1
-23 -21 -12 -30 -45 -15 -55 9 -5 8 -8 -6 -8 -12 0 -16 -5 -12 -16 3 -9 3 -21
-1 -27 -4 -7 -8 -19 -8 -27 -6 -76 -7 -77 -15 -35 -6 30 -15 331 -11 378 1 4
29 7 64 6 l62 -1 -60 -13z m-2706 -337 c0 -202 -3 -295 -9 -280 -6 13 -13 89
-17 169 -5 118 -9 143 -18 129 -11 -14 -13 -8 -19 36 -4 29 -9 92 -13 141 l-5
87 -32 9 c-26 8 -19 9 41 10 l71 1 1 -302z m4561 -233 l0 -524 -600 -1 -600 0
0 525 0 525 600 0 600 0 0 -525z m-2040 456 c0 -4 -11 -20 -25 -35 -14 -15
-25 -36 -25 -47 0 -10 -6 -19 -13 -19 -8 0 -20 -11 -27 -25 l-14 -26 -10 27
-11 26 -20 -23 c-11 -12 -14 -19 -6 -14 10 5 12 4 7 -3 -4 -7 -13 -12 -20 -12
-7 0 -50 -32 -96 -71 -80 -67 -164 -119 -192 -119 -8 1 -5 7 7 16 11 8 81 62
155 119 136 105 283 215 287 215 2 0 3 -4 3 -9z m-1125 -71 c16 -7 14 -9 -15
-9 -23 -1 -30 -4 -22 -10 14 -9 -37 -19 -138 -27 -30 -3 -57 -8 -60 -13 -4 -6
-97 -8 -110 -1 -3 1 9 6 25 11 l30 8 -35 -1 c-73 -2 -174 4 -162 9 7 3 56 13
110 23 103 19 341 26 377 10z m361 -41 c67 -11 226 -62 264 -84 l25 -14 -28
-1 c-15 0 -58 6 -95 14 -37 8 -87 17 -112 20 l-45 5 59 -20 c33 -11 62 -22 65
-26 11 -11 -63 7 -104 27 -37 17 -62 27 -155 60 -19 7 -44 16 -55 21 -30 12
111 11 181 -2z m-142 -83 c38 -15 135 -64 215 -110 80 -45 183 -102 229 -127
100 -53 93 -65 -8 -15 -74 37 -96 43 -85 26 7 -11 -95 26 -109 40 -5 5 -14 6
-20 4 -7 -3 -41 9 -76 25 -35 17 -66 28 -69 25 -3 -3 1 -9 9 -14 8 -5 24 -16
35 -25 l20 -16 -20 9 c-11 5 -41 19 -66 30 -25 12 -56 22 -70 21 -19 0 -15 -4
16 -14 36 -13 36 -14 7 -9 -18 3 -47 7 -65 8 -17 2 -41 5 -52 9 -11 3 -33 8
-50 11 l-30 6 25 -15 c29 -17 16 -19 -43 -6 -23 5 -67 14 -97 20 -30 5 -71 13
-90 17 l-35 8 30 7 c28 7 27 8 -10 7 -22 0 -58 0 -80 1 l-40 1 55 26 c30 14
93 39 140 55 76 27 95 29 175 26 65 -3 109 -12 159 -31z m3424 -129 c18 -30
40 -79 47 -108 15 -57 12 -78 -5 -38 -9 20 -10 15 -6 -26 2 -27 1 -65 -2 -85
l-7 -35 -6 40 -6 40 -2 -47 c0 -26 -12 -78 -26 -115 -26 -68 -128 -257 -144
-268 -5 -3 10 28 33 69 53 93 104 220 118 294 19 103 -4 230 -55 303 -13 18
-16 16 -53 -38 -21 -32 -39 -60 -39 -63 0 -3 -9 -17 -19 -33 -10 -15 -31 -78
-46 -140 -28 -111 -28 -111 -29 -56 -1 63 32 205 62 264 11 22 38 66 61 99
l40 58 26 -30 c14 -17 40 -55 58 -85z m-3990 35 c82 -38 159 -76 172 -85 l24
-17 -24 0 c-63 1 -290 72 -290 92 0 9 44 1 73 -14 9 -5 17 -6 17 -3 0 2 -29
18 -65 34 -40 18 -65 36 -65 45 0 9 2 16 5 16 3 0 72 -31 153 -68z m-678 -16
c19 -10 62 -40 95 -65 75 -57 250 -229 242 -237 -6 -7 -39 21 -33 27 2 2 -10
14 -25 27 -23 19 -28 20 -22 6 8 -20 0 -17 -68 33 -26 18 -46 39 -45 46 0 7
-30 39 -69 72 -38 33 -76 65 -82 71 -7 7 -28 22 -48 34 -19 12 -35 23 -35 25
0 5 43 -14 90 -39z m355 -56 c202 -77 329 -132 339 -149 15 -23 -42 -22 -95 2
-30 13 -76 32 -104 42 -27 10 -57 24 -65 31 -8 6 -71 37 -140 68 -69 31 -136
65 -150 76 l-25 20 30 -11 c17 -6 111 -42 210 -79z m703 -64 c132 -47 189
-188 127 -313 -14 -28 -35 -59 -47 -69 -14 -12 -19 -14 -13 -4 4 8 -12 -3 -36
-26 -68 -64 -141 -115 -156 -110 -7 3 -13 2 -13 -3 0 -5 -19 -20 -42 -35 l-43
-27 35 31 c19 16 30 30 26 30 -5 0 3 9 17 20 28 22 42 26 31 8 -4 -7 -3 -8 4
-4 7 4 12 12 12 19 0 6 17 26 37 44 20 18 32 33 27 33 -6 0 -16 -6 -23 -12
-12 -11 -13 -10 -7 6 5 14 -5 9 -36 -16 -24 -19 -68 -48 -98 -64 -77 -40 -79
-41 -45 -10 l30 27 -32 -16 c-57 -27 -36 -7 37 35 39 23 75 38 82 34 6 -4 8
-3 5 3 -4 6 16 28 44 49 28 22 64 59 80 84 27 40 29 50 24 95 -9 62 -29 106
-57 124 l-21 13 21 -27 c46 -58 37 -143 -20 -190 -30 -26 -50 -27 -31 -3 9 11
10 63 3 150 -1 10 -5 20 -11 23 -5 4 -6 -2 -2 -11 6 -17 5 -17 -17 -1 -14 9
-37 17 -52 17 -15 0 -29 4 -32 9 -14 23 -96 -10 -96 -38 0 -6 -5 -11 -11 -11
-5 0 -7 -4 -4 -10 3 -6 -4 -10 -16 -10 -36 0 -18 57 32 103 69 62 195 85 287
53z m-3387 -75 l53 -48 4 -103 c4 -80 2 -101 -8 -95 -9 5 -11 28 -7 79 4 39 4
65 1 59 -8 -19 -32 -16 -65 8 -16 11 -29 16 -29 10 0 -5 4 -12 9 -15 10 -7 21
-56 12 -56 -12 1 -38 25 -49 47 -23 41 -8 163 19 163 4 0 31 -22 60 -49z m271
-3 c10 -33 10 -42 0 -46 -7 -2 -12 -15 -12 -28 0 -14 -4 -22 -10 -19 -5 3 -10
3 -11 -2 -5 -48 -7 -57 -16 -60 -6 -2 -18 -10 -28 -17 -17 -12 -21 -9 -37 23
-38 71 -23 119 52 173 19 15 38 24 42 22 4 -3 13 -23 20 -46z m7078 -97 c0 -6
-4 -12 -9 -15 -5 -4 -16 -26 -24 -51 -18 -52 -31 -66 -117 -127 -65 -47 -120
-99 -120 -115 0 -4 4 -3 8 2 8 12 48 35 59 35 5 0 -8 -15 -27 -33 -57 -54 -90
-98 -83 -110 4 -6 1 -7 -7 -2 -10 6 -12 4 -7 -9 4 -9 3 -15 -1 -12 -4 2 -18
-15 -31 -40 -13 -24 -30 -44 -37 -44 -8 0 -14 1 -14 3 0 11 132 290 152 322
37 58 119 135 186 172 61 35 72 38 72 24z m-3805 -171 c-3 -5 -6 -35 -6 -65
l-1 -57 -62 -45 c-33 -24 -78 -61 -100 -80 -34 -32 -37 -33 -31 -12 8 23 7 23
-16 6 -65 -46 -77 -45 -26 2 35 33 25 42 -14 13 -24 -18 -59 -35 -59 -28 0 2
44 30 97 62 108 64 169 119 196 177 10 20 20 37 23 37 3 0 2 -4 -1 -10z m439
-20 c36 -11 68 -24 70 -29 8 -13 -75 -65 -106 -66 -15 0 -25 2 -23 5 2 4 -15
16 -38 28 -23 12 -36 22 -29 22 7 0 11 4 7 10 -3 5 -13 6 -22 3 -10 -4 -14 -2
-9 5 3 6 1 14 -6 18 -9 6 -5 10 12 15 43 12 76 10 144 -11z m-1079 -12 c26
-12 33 -32 15 -43 -6 -4 -8 -11 -5 -16 4 -5 -1 -9 -9 -9 -8 0 -22 -7 -31 -16
-8 -9 -23 -13 -32 -10 -14 6 -13 3 2 -21 12 -20 4 -15 -31 18 -27 26 -59 52
-72 58 -43 23 2 49 85 50 29 1 64 -4 78 -11z m-232 -58 c3 -14 14 -20 32 -20
35 0 62 -15 76 -43 6 -12 8 -19 4 -15 -5 5 -16 -10 -26 -32 -18 -40 -33 -55
-23 -22 5 14 3 14 -11 -3 -16 -20 -16 -20 -31 -1 -21 29 -17 9 4 -22 36 -52
35 -55 -6 -14 -23 23 -48 42 -56 42 -7 0 -25 -11 -38 -25 -48 -48 -145 -105
-179 -105 -9 0 -19 6 -21 13 -5 14 -57 18 -55 3 2 -10 -102 -30 -110 -22 -6 5
155 117 282 196 55 34 107 69 115 76 20 20 37 17 43 -6z m1584 -66 c223 -139
320 -206 287 -198 -16 4 -41 13 -57 21 -20 10 -27 10 -25 1 4 -18 -124 -8
-130 11 -2 6 -13 11 -23 11 -11 0 -17 5 -14 10 3 6 -3 10 -14 10 -12 0 -20 6
-18 13 1 6 -4 11 -11 9 -7 -1 -15 4 -18 12 -3 8 -12 12 -19 10 -7 -3 -23 4
-35 16 l-22 22 -45 -33 c-25 -18 -44 -26 -41 -19 2 8 -3 21 -11 30 -31 33 -51
60 -44 60 4 0 2 5 -5 12 -19 19 15 48 55 48 26 0 33 4 33 20 0 11 4 20 9 20 5
0 72 -39 148 -86z m3306 -260 c80 -7 93 -17 62 -47 -12 -12 -13 -25 -5 -64 8
-42 8 -258 0 -1028 -2 -161 -4 -183 -13 -145 -6 25 -10 83 -9 130 1 49 -2 79
-7 72 -4 -8 -9 210 -9 484 -1 308 3 503 9 510 7 8 1 14 -18 19 -26 7 -1297 8
-4723 2 -690 -1 -1214 1 -1165 4 50 4 7 5 -95 3 -102 -2 -668 -4 -1259 -4
-591 0 -1072 -3 -1068 -6 3 -4 0 -13 -8 -21 -13 -12 -15 -109 -16 -651 -1
-421 -5 -612 -10 -562 -5 41 -7 81 -4 88 3 8 0 10 -6 6 -8 -5 -10 153 -7 569
l4 576 -22 28 c-13 15 -23 31 -24 36 0 9 8286 10 8393 1z m-141 -209 c16 -14
36 -25 44 -25 11 0 14 -18 14 -84 0 -69 -4 -88 -20 -109 -12 -14 -27 -24 -34
-21 -24 9 -56 80 -56 126 0 53 11 138 17 138 3 0 18 -11 35 -25z m-5692 -21
c191 -54 344 -218 385 -411 41 -192 -10 -360 -150 -497 -63 -62 -168 -131
-200 -131 -5 0 -12 -3 -15 -7 -3 -3 -21 -9 -40 -11 -19 -3 -37 -6 -40 -7 -11
-5 -138 2 -177 10 -30 5 -43 4 -43 -4 0 -6 -5 -4 -10 4 -6 9 -10 10 -10 3 0
-6 -8 -10 -17 -8 -28 5 -144 57 -139 62 2 3 18 -3 35 -11 36 -19 41 -20 41 -4
0 6 -3 8 -6 5 -4 -4 -19 2 -34 13 -15 11 -35 17 -47 14 -15 -4 -39 13 -95 68
-116 112 -158 215 -158 383 0 194 78 346 230 450 140 97 323 126 490 79z
m3745 11 c210 -44 384 -212 425 -412 15 -72 8 -242 -14 -309 -34 -109 -136
-223 -266 -301 -116 -68 -296 -89 -430 -48 -55 16 -108 45 -84 45 4 0 -7 11
-26 25 -19 14 -38 25 -44 25 -6 0 -26 15 -46 33 -20 17 -11 8 19 -22 43 -42
48 -49 21 -31 -100 66 -181 172 -220 290 -19 56 -21 81 -18 180 5 130 29 219
77 291 128 189 371 283 606 234z m-5060 -20 c33 -9 85 -32 115 -53 70 -48 101
-106 108 -201 4 -59 1 -77 -21 -125 -14 -30 -37 -67 -50 -80 l-24 -24 36 -17
c51 -23 100 -71 122 -119 26 -58 25 -163 -2 -225 -33 -79 -143 -164 -259 -203
-60 -20 -89 -22 -382 -26 -175 -2 -318 0 -318 4 0 4 16 22 35 40 l35 32 0 464
c0 515 3 490 -68 528 l-37 19 325 1 c260 0 338 -3 385 -15z m2568 0 c115 -30
183 -82 226 -175 21 -46 25 -70 26 -150 0 -87 -2 -99 -30 -148 -28 -52 -54
-79 -105 -113 l-24 -16 71 -144 c88 -178 141 -261 187 -291 20 -13 36 -26 36
-30 0 -5 -93 -8 -206 -8 l-207 0 27 25 c14 13 26 29 26 34 0 6 -24 52 -54 103
-29 51 -72 129 -95 173 l-41 80 -90 0 -90 0 0 -168 0 -169 35 -35 c19 -19 35
-37 35 -39 0 -2 -84 -4 -186 -4 l-186 0 36 40 36 40 0 463 c0 514 3 489 -68
527 l-37 19 310 1 c245 0 323 -3 368 -15z m1207 -1 c173 -39 327 -195 371
-374 21 -87 17 -223 -10 -303 -26 -76 -92 -181 -124 -199 -12 -6 -29 -18 -37
-27 -33 -35 -91 -72 -103 -65 -6 4 -9 4 -5 -1 22 -23 -128 -82 -242 -95 -81
-9 -460 -14 -460 -6 0 2 16 20 35 39 l35 35 0 460 c0 253 -3 468 -7 477 -3 10
-26 30 -51 46 l-46 29 288 0 c224 0 302 -3 356 -16z m2391 -206 c100 -123 203
-248 229 -278 25 -30 60 -74 79 -97 18 -24 36 -43 40 -43 4 0 7 131 7 291 -1
320 4 294 -62 336 -15 9 19 12 166 12 178 0 184 0 158 -16 -15 -10 -30 -23
-32 -30 -3 -7 -6 -217 -7 -466 -1 -248 -4 -480 -7 -514 l-4 -63 -81 0 c-77 0
-84 2 -108 28 -79 84 -342 407 -472 579 -42 56 -81 104 -87 108 -7 4 -10 -98
-10 -310 l0 -315 41 -45 42 -45 -188 0 -187 0 36 40 c29 33 36 48 36 83 2 298
-2 890 -6 902 -4 8 -25 26 -48 40 l-41 25 162 0 161 0 183 -222z m-6995 177
c8 -21 12 -47 8 -63 -8 -32 -43 -74 -56 -66 -5 3 -14 2 -21 -3 -16 -12 -70
-16 -116 -8 -31 5 -42 14 -60 44 -22 40 -27 86 -12 110 11 16 16 7 25 -41 9
-51 46 -78 106 -78 67 0 91 22 98 88 2 29 6 52 9 52 2 0 11 -16 19 -35z m2712
-1222 c-3 -17 -33 -18 -463 -19 -281 -1 -465 2 -472 8 -7 6 -112 8 -262 6
-138 -2 -243 -6 -233 -11 9 -4 -30 -4 -88 -1 -148 8 -331 7 -499 -1 -115 -6
-145 -5 -151 6 -6 9 -34 13 -94 14 -46 0 -88 3 -91 7 -4 4 525 7 1175 7 1122
1 1181 0 1178 -16z m5286 6 c-4 -7 -64 -10 -168 -9 -306 4 -892 -4 -816 -10
44 -4 -22 -6 -160 -6 -129 1 -215 4 -190 7 25 4 -114 6 -308 4 -195 -1 -408 1
-475 5 -67 3 -144 4 -172 0 -35 -3 -10 -7 85 -10 133 -6 133 -6 -62 -8 -119
-1 -198 2 -198 7 0 6 -114 9 -290 8 -218 -1 -293 2 -302 11 -10 10 309 12
1525 12 1065 -1 1536 -4 1531 -11z m-6967 -237 c45 -37 153 -125 240 -197 292
-240 859 -738 875 -769 l11 -21 -24 21 c-42 37 -54 39 -29 3 22 -32 21 -32
-22 10 -26 24 -50 41 -55 38 -5 -3 -15 -1 -23 5 -12 8 -12 9 3 4 9 -3 17 -1
17 4 0 9 -14 14 -32 11 -5 0 -8 3 -8 7 0 5 -17 18 -38 29 -20 12 -48 33 -61
47 -14 14 -32 26 -42 26 -10 0 -25 10 -33 22 -22 31 -97 89 -107 83 -7 -5 -24
13 -24 26 0 13 -93 105 -146 145 -30 23 -93 80 -138 127 -46 47 -89 83 -95 81
-7 -3 -30 12 -51 32 -22 20 -33 32 -24 28 8 -5 1 2 -15 16 -17 14 -55 48 -86
75 -30 28 -77 68 -103 89 -98 80 -118 101 -105 114 19 19 29 15 115 -56z
m1294 16 c0 -24 2 -334 5 -690 5 -643 5 -648 -15 -648 -11 0 -22 4 -26 10 -3
5 -12 7 -19 4 -17 -6 -26 320 -26 923 l0 432 28 4 c15 2 33 5 40 6 8 0 12 -14
13 -41z m1979 -43 c19 -2 55 -8 80 -14 54 -11 197 -17 207 -8 3 4 -23 7 -60 7
-36 0 -68 3 -71 8 -2 4 71 2 163 -5 255 -18 267 -20 112 -20 -123 0 -145 -2
-153 -16 -7 -14 -26 -17 -101 -18 -94 0 -99 -15 -7 -20 36 -2 39 -3 15 -7 -26
-4 -28 -5 -10 -12 16 -7 12 -9 -17 -9 -20 -1 -40 -6 -44 -12 -4 -7 4 -10 22
-9 48 3 64 1 64 -11 0 -6 -8 -8 -17 -5 -10 3 -25 1 -33 -4 -13 -8 -12 -10 3
-10 20 0 18 -22 -3 -33 -8 -4 1 -5 20 -2 18 3 37 10 41 17 4 7 8 4 11 -8 3
-16 -7 -21 -72 -32 -41 -7 -84 -13 -95 -13 -16 0 -17 -2 -5 -9 8 -5 17 -7 21
-4 14 8 141 23 155 17 36 -13 7 -43 -42 -43 -13 0 -24 -4 -24 -10 0 -5 -8 -10
-17 -10 -15 0 -16 2 -3 10 8 5 10 10 5 10 -6 0 -15 -4 -20 -9 -6 -5 -30 -14
-55 -19 -44 -10 -44 -11 23 -8 37 2 67 0 67 -3 0 -11 -38 -40 -44 -34 -3 4 -6
1 -6 -5 0 -6 -6 -9 -13 -6 -7 2 -24 0 -38 -6 -23 -10 -22 -10 6 -5 29 6 29 5
-10 -21 -22 -15 -52 -37 -67 -50 -15 -12 -49 -30 -75 -40 -65 -24 -273 -145
-327 -189 -51 -41 -67 -41 -110 -2 -85 78 -234 157 -332 176 -98 19 -102 21
-116 34 -7 6 -36 30 -63 52 -28 22 -55 44 -61 50 -41 37 -68 57 -106 76 -38
19 -53 21 -146 16 l-103 -5 3 32 c3 29 7 32 48 38 l45 6 -47 -1 c-40 -2 -48 1
-48 15 0 13 8 18 28 19 15 1 86 5 157 8 l130 8 -146 1 c-139 2 -209 13 -209
33 0 5 30 10 68 11 l67 1 -65 7 c-68 7 -68 7 48 15 99 8 264 9 432 3 107 -3
182 -4 165 -1 -16 2 -36 10 -44 16 -9 8 -123 13 -362 17 -191 3 -350 8 -354
11 -17 17 446 21 735 6 79 -4 99 -3 65 3 -141 24 -132 28 60 28 105 -1 192 -4
195 -8 3 -5 86 -9 185 -11 99 -2 183 -4 187 -6 4 -2 0 -12 -10 -22 -9 -10 -21
-16 -26 -13 -5 3 -7 -25 -4 -61 4 -75 22 -102 76 -117 91 -25 164 65 127 157
-19 47 -47 63 -113 63 -31 0 -42 3 -33 9 11 7 10 10 -5 14 -10 3 -1 3 21 1 22
-3 56 -7 75 -9z m1016 -47 c5 -35 8 -72 7 -83 -1 -11 -5 -54 -8 -95 -4 -41 -8
-129 -10 -195 -7 -238 -16 -353 -41 -525 -28 -196 -42 -260 -56 -260 -11 0 -9
41 38 650 40 529 44 570 54 570 5 0 12 -28 16 -62z m1824 22 c46 -23 87 -80
95 -130 6 -35 6 -35 -19 12 -34 62 -77 91 -146 99 -62 7 -103 -6 -138 -44 -25
-27 -45 -83 -37 -108 8 -24 14 -79 10 -79 -3 0 -12 14 -20 30 -18 35 -21 104
-7 140 11 26 53 70 87 88 34 19 131 14 175 -8z m-5093 -191 c1 -172 0 -191
-12 -164 -8 17 -15 66 -16 110 l-2 80 -8 -85 c-4 -47 -7 -124 -8 -172 -1 -48
-5 -89 -9 -92 -18 -11 -33 107 -32 251 2 198 5 219 36 251 10 10 14 7 17 -15
4 -26 4 -25 6 5 0 22 5 32 14 30 9 -4 12 -54 14 -199z m-1612 -29 c43 -74 104
-175 136 -223 33 -49 64 -98 71 -110 10 -19 9 -20 -4 -10 -8 7 -17 10 -20 7
-19 -18 -262 403 -251 434 3 9 2 14 -2 9 -5 -4 -19 18 -32 50 -29 71 -29 81 1
23 13 -25 58 -106 101 -180z m1415 198 c6 -16 9 -18 9 -7 1 9 7 19 15 22 19 8
22 -28 18 -257 -3 -168 -5 -186 -17 -163 -8 15 -15 62 -16 105 -3 105 -9 142
-24 142 -17 0 -25 -33 -25 -113 0 -50 -3 -68 -12 -65 -15 5 -26 99 -25 218 l1
85 5 -90 6 -90 8 110 c5 60 11 113 13 117 10 16 35 7 44 -14z m327 4 c18 -12
23 -476 5 -494 -9 -9 -12 4 -12 63 0 40 -5 92 -12 114 l-12 40 -7 -45 c-4 -25
-8 -66 -8 -92 -1 -26 -5 -49 -10 -53 -11 -6 -15 382 -5 432 5 27 14 36 44 42
3 0 11 -3 17 -7z m2788 -72 c6 -19 1 -107 -11 -193 -3 -21 -10 -34 -16 -31 -5
3 -20 -4 -34 -17 l-24 -22 0 141 0 142 39 0 c31 0 41 -4 46 -20z m-2315 -20
l0 -30 75 0 75 0 0 -125 c0 -69 -2 -125 -4 -125 -11 0 -36 113 -36 159 0 50 0
51 -31 51 -17 0 -28 -4 -24 -10 3 -5 13 -6 22 -3 13 5 15 2 10 -11 -4 -10 -8
-41 -8 -69 -1 -29 -3 -41 -6 -27 -13 90 -15 96 -23 75 -6 -13 -9 -15 -9 -5 -1
13 -2 13 -12 0 -7 -11 -9 -7 -7 19 2 22 -2 36 -11 39 -10 3 -13 -3 -9 -25 l4
-29 -32 15 c-20 9 -34 24 -37 38 -3 19 0 23 22 24 14 0 20 3 13 6 -6 2 -10 9
-6 14 3 5 -2 9 -10 9 -9 0 -16 5 -16 10 0 6 9 10 20 10 11 0 20 5 20 10 0 6 5
10 10 10 6 0 10 -13 10 -30z m4394 -51 c13 -132 6 -164 -49 -212 -23 -20 -37
-19 -154 13 -65 17 -102 21 -158 18 -84 -6 -87 6 -6 22 64 14 109 9 205 -22
76 -24 104 -19 134 27 18 28 13 68 -17 142 -11 28 -11 34 6 52 10 12 21 21 25
21 4 0 10 -28 14 -61z m-495 17 l23 -25 -30 -32 c-16 -18 -41 -33 -54 -34 -14
-2 -22 -8 -20 -16 2 -8 1 -11 -3 -7 -4 4 -25 -6 -47 -22 -22 -17 -45 -27 -51
-23 -6 3 -7 1 -3 -5 4 -7 -7 -17 -29 -26 -19 -8 -35 -20 -35 -25 0 -6 -4 -10
-9 -8 -5 1 -24 -14 -43 -33 -18 -19 -47 -46 -63 -59 -17 -13 -54 -47 -84 -75
-29 -28 -48 -41 -42 -29 17 33 -11 24 -49 -17 -47 -51 -66 -90 -32 -69 14 9
40 8 108 -2 l89 -14 -117 -5 c-107 -5 -120 -7 -140 -29 -21 -21 -21 -22 -3
-13 24 12 187 4 179 -9 -3 -5 -49 -9 -102 -9 -98 0 -136 -10 -116 -30 5 -5 38
-13 72 -16 35 -4 65 -11 68 -15 7 -12 -34 -11 -116 2 -56 10 -73 9 -85 -1 -15
-12 -15 -14 0 -22 9 -5 46 -15 83 -22 54 -11 62 -15 42 -20 -14 -4 -56 -1 -93
7 -57 12 -70 12 -87 0 -11 -8 -20 -18 -20 -22 0 -4 32 -14 71 -20 49 -9 68
-16 60 -24 -7 -7 -33 -6 -86 3 -73 12 -77 12 -97 -7 -23 -24 -21 -25 55 -38
56 -9 47 -28 -10 -19 -27 4 -58 11 -71 15 -26 10 -68 92 -78 155 -5 34 -2 45
19 70 l26 29 -9 -40 c-7 -29 -5 -59 7 -108 l17 -68 65 65 c36 36 88 85 115
109 l49 44 -2 114 -2 115 36 34 c19 18 37 31 40 28 3 -3 -8 -61 -25 -129 -49
-191 -48 -178 -8 -133 29 32 39 56 57 133 13 52 29 107 36 121 42 81 287 250
415 286 71 20 104 17 129 -10z m-399 -74 c0 -12 -38 -32 -89 -48 -34 -10 -111
-14 -302 -14 -141 0 -277 3 -302 6 -40 6 -46 10 -49 35 l-5 29 374 0 c205 0
373 -3 373 -8z m-3052 -99 c23 -13 75 -51 115 -85 98 -82 101 -84 192 -102
132 -27 310 -129 347 -200 10 -19 8 -19 -16 4 -23 21 -26 22 -20 5 5 -14 -5
-9 -34 17 -56 50 -153 100 -122 63 7 -8 16 -13 20 -10 4 2 18 -7 30 -20 33
-35 11 -31 -60 11 -52 30 -175 80 -217 88 -7 1 -16 5 -19 9 -15 15 -26 6 -13
-10 8 -10 -3 -3 -24 15 -44 38 -52 40 -36 10 11 -20 9 -20 -20 5 -43 36 -55
34 -31 -5 25 -41 27 -73 3 -38 -10 14 -31 36 -46 49 -16 14 -34 29 -41 35 -22
21 -101 54 -161 67 l-60 14 55 6 c30 3 42 7 25 8 -34 2 -118 39 -95 41 9 1 6
5 -7 10 -41 16 -24 27 55 37 94 12 124 8 180 -24z m-2013 12 c22 -8 46 -15 53
-15 23 0 112 -42 107 -50 -3 -5 1 -10 7 -13 7 -2 -12 -2 -43 1 -60 5 -94 -8
-138 -49 -18 -17 -22 -29 -18 -55 5 -31 4 -32 -14 -21 -10 6 -22 20 -25 31 -5
15 -8 16 -15 5 -6 -11 -9 -10 -15 5 -8 22 18 72 55 103 24 21 25 22 5 23 -67
1 -150 -45 -197 -110 -18 -25 -18 -25 -1 5 9 17 28 43 43 59 14 16 19 27 12
24 -18 -5 -79 -92 -82 -116 0 -9 -2 -53 -3 -97 -1 -73 2 -87 36 -157 27 -57
56 -96 110 -151 133 -135 277 -200 528 -237 195 -29 279 -71 324 -159 35 -69
29 -76 -19 -23 -41 45 -119 102 -101 74 3 -5 -16 -4 -42 4 -26 7 -103 20 -170
29 -205 26 -289 54 -433 147 -196 127 -300 312 -286 509 4 64 11 88 34 126 63
102 181 146 288 108z m4935 -17 c-14 -6 -45 -21 -70 -33 -46 -22 -211 -52
-229 -41 -5 3 -11 0 -14 -6 -5 -13 -8 -6 -22 37 -3 11 -19 15 -60 15 l-55 0 0
-69 c0 -39 -4 -73 -10 -76 -5 -3 -10 2 -10 13 0 13 -11 23 -32 30 l-33 10 31
1 c23 1 33 7 37 21 3 11 1 20 -4 20 -5 0 -9 -4 -9 -10 0 -5 -20 -10 -45 -10
-25 0 -45 -4 -45 -10 0 -5 6 -10 14 -10 8 0 16 -7 20 -15 4 -11 -1 -15 -19
-15 -14 0 -25 -1 -25 -2 -1 -2 -3 -59 -6 -128 -4 -90 -10 -128 -20 -136 -8 -6
-14 -20 -15 -30 0 -15 -2 -14 -10 6 -7 16 -6 87 0 210 6 102 11 197 11 213 l0
27 323 -1 c240 0 316 -3 297 -11z m-1305 -39 c-11 -4 -37 -8 -57 -8 -58 -1
-200 -51 -221 -78 -10 -13 -24 -23 -32 -23 -7 0 -15 -3 -17 -7 -1 -5 -42 -27
-91 -51 -48 -23 -104 -57 -125 -75 -71 -62 -116 -93 -109 -72 7 16 5 16 -9 4
-13 -11 -18 -11 -21 -1 -3 6 -11 12 -19 12 -9 0 -13 -4 -10 -8 2 -4 -4 -8 -15
-8 -10 0 -19 2 -19 3 0 1 18 15 40 29 22 15 38 29 36 32 -7 6 -75 -36 -108
-66 -16 -14 -28 -21 -28 -15 0 32 191 145 330 197 52 20 86 40 112 67 48 51
75 61 178 68 126 9 207 9 185 0z m419 -8 c-66 -20 -128 -50 -104 -51 8 0 30 4
48 9 19 6 30 6 27 1 -3 -5 -25 -15 -48 -21 -84 -23 -108 -31 -104 -35 2 -2 36
2 76 11 137 29 123 17 -46 -40 -70 -24 -127 -48 -125 -54 3 -15 -15 -14 -22 2
-3 9 -9 7 -19 -5 -8 -10 -20 -18 -28 -19 -10 0 -11 -2 -2 -6 10 -3 10 -10 1
-26 -15 -30 -80 -86 -97 -87 -11 0 -9 4 5 16 18 14 18 15 1 10 -66 -21 -71
-17 -22 17 49 34 95 77 81 77 -10 0 -91 -52 -94 -60 -2 -5 -30 -16 -62 -26
-38 -12 -60 -25 -60 -34 0 -12 -2 -12 -9 -2 -6 10 -18 11 -52 3 -69 -16 -138
-19 -143 -7 -3 7 -8 6 -15 -4 -9 -13 -11 -13 -11 2 0 9 6 19 13 21 7 3 5 6 -5
6 -10 1 -18 7 -18 15 0 17 13 22 105 36 85 14 131 33 227 98 84 57 156 88 285
126 120 34 169 44 228 44 l50 0 -61 -17z m-2481 -66 c32 -8 74 -24 95 -34 42
-23 132 -107 182 -172 30 -39 27 -37 -27 16 -33 33 -76 68 -94 78 l-34 19 25
-24 c33 -31 100 -118 74 -95 -25 21 -67 22 -84 2 -15 -18 -35 -15 -35 6 0 7
-18 24 -40 36 -22 13 -39 27 -38 32 1 5 -3 8 -10 8 -7 0 -36 1 -66 1 -44 2
-52 5 -47 18 4 10 2 14 -6 11 -7 -2 -22 1 -33 7 -18 10 -15 12 25 17 l45 6
-47 1 c-25 1 -54 5 -64 9 -16 6 -16 7 2 14 18 7 18 8 -1 8 -15 1 -17 3 -6 10
9 6 1 13 -30 24 l-44 15 100 1 c60 1 124 -5 158 -14z m4192 -55 c79 -27 144
-71 207 -139 51 -55 109 -149 122 -201 7 -24 7 -25 -9 -5 -9 11 -20 19 -25 18
-5 -2 -7 3 -4 10 7 18 -54 110 -68 101 -7 -4 -8 -3 -4 4 4 7 2 12 -5 12 -6 0
-24 12 -38 28 -64 66 -176 137 -258 162 -24 7 -43 17 -43 22 0 15 65 8 125
-12z m-5370 -141 c63 -31 218 -183 285 -279 52 -76 125 -209 117 -216 -2 -2
-27 33 -54 78 -75 122 -135 199 -216 273 -81 76 -157 119 -190 110 -18 -5 -19
-4 -7 5 11 8 2 10 -40 8 -61 -2 -101 -15 -143 -48 -42 -33 -46 -15 -6 26 73
77 157 91 254 43z m2011 -93 c26 -26 34 -42 34 -70 0 -32 3 -36 25 -36 14 0
29 -8 35 -19 12 -23 14 -91 2 -91 -8 0 -42 37 -42 46 0 20 -43 94 -56 94 -8 0
-17 7 -20 15 -9 22 -24 18 -24 -6 0 -18 -2 -20 -16 -8 -8 7 -22 26 -30 43 -8
18 -11 21 -8 9 6 -26 -8 -30 -26 -8 -7 9 -15 13 -18 11 -2 -3 -13 -1 -24 5
-10 5 -51 18 -91 29 l-72 18 149 1 148 1 34 -34z m-272 -52 c13 -5 16 -21 15
-83 -1 -42 -3 -68 -6 -58 -2 9 -10 17 -16 17 -8 0 -8 3 1 9 17 10 -28 30 -77
33 -30 3 -36 -1 -41 -21 -6 -28 -30 -41 -30 -17 0 20 -40 21 -91 2 -20 -7 -51
-11 -68 -8 -20 3 -31 0 -31 -7 0 -7 -5 -9 -10 -6 -23 14 20 33 84 37 42 2 71
9 76 17 4 8 15 11 24 8 8 -3 18 -2 21 3 4 6 22 10 42 10 49 0 37 10 -14 12
-30 1 -40 5 -36 15 8 20 -23 26 -77 16 -27 -6 -55 -6 -62 -2 -25 16 17 21 219
27 34 1 68 -1 77 -4z m1031 -23 c36 -8 37 -9 10 -10 -24 -1 -27 -3 -15 -12 11
-7 12 -12 3 -15 -7 -3 -9 -12 -6 -20 3 -8 2 -14 -3 -13 -5 1 -20 0 -34 -1 -20
-2 -22 -3 -6 -7 11 -3 26 -11 34 -19 12 -12 9 -16 -22 -29 -19 -8 -41 -15 -48
-15 -7 -1 0 -7 16 -13 l29 -13 -25 -20 c-125 -98 23 -207 352 -258 52 -9 182
-20 289 -25 107 -6 196 -13 199 -16 3 -3 -39 -6 -94 -6 -67 -1 -86 -4 -59 -8
39 -6 38 -7 -24 -14 -35 -4 -89 -7 -120 -8 l-56 -1 60 -13 c73 -15 69 -16
-120 -25 l-150 -6 130 -3 c160 -4 123 -16 -95 -30 l-145 -9 130 3 c73 1 121
-1 110 -6 -25 -10 -511 -12 -501 -1 4 4 53 10 109 13 l102 5 -115 3 c-78 1
-123 6 -140 16 -25 14 -24 14 20 16 42 2 40 2 -20 10 -77 10 -144 26 -115 28
17 1 17 3 5 11 -8 5 -26 10 -40 10 -18 0 -21 3 -11 9 10 7 5 11 -18 16 -26 6
-31 11 -33 38 0 18 -2 37 -2 44 -1 7 -17 31 -37 53 -20 22 -34 40 -31 40 2 0
-7 9 -22 21 -34 27 -33 37 7 42 l32 4 -37 1 c-43 2 -59 20 -34 38 16 11 15 13
-10 16 -32 4 -44 38 -13 38 10 0 19 4 19 9 0 5 -9 7 -20 4 -11 -3 -20 0 -20 6
0 6 5 11 10 11 19 0 -34 81 -62 96 -16 8 -28 17 -28 19 0 9 623 4 665 -4z
m2050 -50 c22 -10 49 -26 58 -36 17 -16 17 -18 -4 -36 -18 -15 -25 -17 -32 -7
-6 9 -7 6 -2 -7 17 -49 24 -79 20 -84 -3 -2 -5 2 -6 10 -1 8 -5 3 -9 -11 -8
-24 -8 -24 -9 6 -1 16 -7 38 -14 48 -12 16 -13 14 -9 -17 8 -68 -53 -137 -121
-137 -20 0 -39 5 -42 10 -4 6 8 10 30 10 82 0 127 107 73 175 -24 31 -74 55
-115 55 l-28 1 35 19 c45 25 123 25 175 1z m-180 -95 c37 -16 47 -36 17 -36
-18 0 -102 -21 -137 -35 l-20 -8 20 17 c19 16 18 16 -13 1 -19 -9 -30 -20 -26
-27 5 -7 3 -8 -5 -4 -27 17 -179 -123 -242 -223 -43 -66 -35 -26 8 48 55 92
171 204 256 246 78 39 93 41 142 21z m-3201 -81 c88 -8 176 -20 195 -26 140
-45 260 -158 296 -276 11 -37 -8 -26 -47 28 -21 29 -38 45 -38 38 0 -8 7 -23
15 -33 26 -34 16 -42 -12 -11 -16 16 -27 33 -26 36 2 7 -37 45 -43 42 -9 -5
-33 10 -29 17 9 15 -14 21 -37 10 -21 -10 -22 -10 -5 4 18 14 17 15 -13 31
-17 9 -39 13 -49 10 -11 -3 -25 3 -36 15 -22 24 -43 27 -24 3 13 -15 12 -15
-11 -4 -20 9 -17 5 10 -19 19 -17 27 -28 18 -24 -10 3 -18 2 -18 -4 0 -6 -25
3 -56 20 -30 17 -57 28 -59 26 -2 -2 12 -12 33 -23 20 -10 47 -28 59 -38 13
-11 27 -16 35 -11 7 4 10 4 6 -1 -4 -4 1 -20 12 -35 22 -32 26 -45 8 -34 -8 5
-9 0 -5 -17 6 -23 5 -23 -9 -4 -8 11 -12 25 -9 33 2 7 0 10 -5 7 -6 -3 -13 1
-16 9 -8 20 -91 69 -104 61 -6 -4 -9 -1 -8 5 3 13 -76 44 -138 54 -21 4 -73
13 -114 20 l-75 13 75 3 c108 2 100 4 -170 39 -65 8 -125 32 -113 44 12 13
346 7 507 -8z m560 -11 c93 -32 238 -201 223 -261 -4 -17 -4 -17 -12 1 -5 11
-17 28 -27 38 -10 10 -16 24 -12 31 4 7 4 9 -1 5 -5 -5 -30 13 -57 40 -26 26
-52 47 -57 47 -5 0 -29 21 -54 48 -25 26 -50 47 -56 47 -6 0 -11 5 -11 10 0
14 9 13 64 -6z m2162 -346 c3 -4 1 -15 -5 -25 -8 -14 -10 -14 -11 -3 0 9 -3
11 -8 5 -4 -5 -11 -10 -17 -10 -5 0 -46 -5 -90 -10 -44 -4 -83 -8 -87 -7 -4 1
-55 5 -114 8 -81 4 -105 3 -99 -6 9 -14 -110 -7 -208 12 -68 13 -64 28 11 39
56 9 619 6 628 -3z m-3061 -62 c9 -9 23 -16 30 -16 18 0 45 -51 45 -85 0 -37
-20 -31 -21 8 0 17 -3 26 -6 19 -4 -10 -8 -9 -19 5 -11 16 -12 13 -8 -22 l6
-40 -28 41 c-15 23 -37 47 -47 54 -18 11 -19 10 -13 -15 5 -19 3 -25 -5 -20
-6 4 -15 1 -20 -6 -6 -10 -9 -7 -9 11 0 19 -2 22 -10 10 -7 -12 -11 -10 -19
10 -8 22 -10 22 -11 5 -1 -13 -3 -15 -7 -6 -4 11 -10 8 -24 -10 -16 -21 -19
-22 -19 -5 0 10 15 33 34 51 31 29 40 32 85 30 30 -2 57 -10 66 -19z m3361
-128 c-4 -22 -9 -45 -12 -50 -3 -4 -202 -8 -441 -8 -440 0 -547 7 -566 37 -4
7 -22 13 -40 14 l-32 1 35 16 c30 15 89 18 425 22 215 3 446 7 514 8 l124 2
-7 -42z m621 18 c4 -5 2 -11 -5 -13 -6 -3 -10 -8 -8 -11 2 -4 -26 -6 -62 -5
-53 1 -60 0 -32 -7 48 -10 26 -13 -123 -14 -117 -1 -128 0 -123 17 2 9 0 17
-5 17 -5 0 -9 7 -9 16 0 14 20 16 179 12 99 -1 183 -7 188 -12z m-2607 -27
c64 -14 114 -53 160 -122 39 -57 41 -64 38 -130 -2 -69 -18 -112 -32 -89 -4 7
-3 12 2 12 16 0 23 77 10 105 -8 19 -14 22 -20 13 -8 -10 -11 -10 -15 2 -13
31 -97 110 -130 121 -33 11 -94 8 -153 -5 -14 -4 -9 0 10 8 51 21 138 20 182
-3 21 -10 35 -21 32 -23 -3 -3 8 -16 23 -29 16 -13 29 -27 30 -32 4 -23 11
-28 8 -5 -4 29 -35 82 -35 60 0 -7 -5 -10 -10 -7 -6 4 -8 10 -5 14 10 17 -42
49 -92 56 -51 7 -159 -10 -169 -26 -2 -5 -11 -6 -18 -3 -8 3 -17 1 -21 -5 -4
-7 0 -8 11 -4 12 4 15 3 10 -5 -4 -7 -2 -12 5 -12 7 0 4 -6 -6 -14 -11 -8 -24
-12 -29 -8 -5 3 -7 -2 -3 -11 4 -11 2 -14 -9 -10 -10 4 -17 -2 -21 -16 -3 -11
-9 -21 -14 -21 -11 0 16 56 31 65 5 3 10 12 10 18 0 7 -12 0 -25 -16 -30 -34
-49 -100 -42 -149 3 -21 0 -44 -8 -54 -10 -15 -13 -10 -19 32 -12 96 38 210
112 256 74 46 124 55 202 37z m724 -24 c-5 -12 -29 -15 -123 -16 -64 -1 -152
-3 -196 -4 -49 -2 -72 0 -60 5 20 9 20 9 0 9 -12 1 -25 -3 -30 -8 -15 -14
-113 -1 -119 15 -4 12 39 14 264 14 235 0 269 -2 264 -15z m-1104 -84 c0 -14
-39 -25 -80 -23 -32 1 -33 0 -10 -8 23 -7 23 -8 -10 -10 -29 -1 -32 -3 -15
-10 18 -8 17 -9 -7 -9 -16 -1 -28 -5 -28 -11 0 -5 -24 -11 -52 -11 l-53 -1 53
-10 c30 -5 52 -11 50 -13 -6 -6 -288 12 -295 18 -3 4 34 8 83 8 l89 2 -110 13
c-128 16 -146 21 -126 33 9 6 0 11 -28 16 -102 17 -23 25 249 25 173 0 290 -4
290 -9z m1112 -23 c-3 -18 -7 -28 -9 -22 -3 10 -71 9 -82 -1 -2 -3 -10 0 -18
6 -10 9 -13 8 -13 -5 0 -23 -9 -20 -32 9 -27 34 -95 35 -126 3 -42 -46 -37
-99 12 -141 11 -10 14 -15 6 -11 -61 30 -79 97 -39 148 20 26 20 26 1 26 -11
0 -22 -5 -24 -11 -6 -17 -58 -20 -64 -4 -4 9 -16 12 -39 8 -22 -3 -41 0 -56
11 -22 15 -6 16 232 16 l256 0 -5 -32z m-1508 -255 c8 -10 56 -74 107 -142 51
-69 112 -144 134 -168 23 -24 38 -43 34 -43 -4 0 -11 5 -14 10 -3 6 -11 10
-16 10 -6 0 -7 -5 -3 -11 14 -24 -34 11 -67 48 -18 21 -36 37 -41 36 -4 -2 -4
5 -1 15 3 9 3 14 -2 10 -8 -8 -52 42 -48 54 2 4 -8 15 -22 24 -14 9 -25 21
-25 26 0 15 -57 78 -64 71 -3 -3 -11 6 -17 21 -7 14 -17 26 -23 26 -16 1 25
30 41 30 7 0 20 -8 27 -17z m1420 11 c9 -3 16 -10 16 -14 0 -14 -63 -111 -92
-144 -16 -17 -28 -34 -28 -39 0 -4 -4 -6 -8 -3 -4 2 -20 -16 -34 -42 -15 -26
-41 -60 -58 -77 l-32 -30 17 35 17 35 -29 -30 c-16 -16 -40 -39 -53 -50 l-24
-20 19 26 c11 15 41 53 66 85 25 33 72 97 104 144 52 75 94 130 101 130 1 0 9
-3 18 -6z"/>
<path d="M7714 7648 c-73 -15 -75 -20 -77 -247 l-2 -201 28 -6 c15 -3 60 -3
100 1 l72 7 -3 200 c-2 177 -5 204 -21 224 -10 13 -21 21 -24 17 -4 -3 -12 -1
-19 4 -8 6 -29 6 -54 1z"/>
<path d="M2785 6074 c-4 -340 -9 -639 -9 -664 l-1 -45 455 3 c250 1 461 2 469
2 9 0 10 4 4 13 -10 12 -21 149 -29 372 -11 300 -25 524 -34 560 -6 22 -7 76
-4 122 7 95 -4 215 -17 173 l-7 -25 -1 26 c-1 31 -18 35 -170 45 -54 4 -79 9
-70 15 8 5 -64 9 -177 9 -105 0 -238 3 -296 6 l-105 7 -8 -619z m385 541 c140
-9 287 -18 327 -21 l72 -6 6 -51 c11 -101 20 -329 13 -333 -5 -3 -8 0 -8 5 0
15 -43 14 -58 -1 -6 -6 -15 -9 -18 -5 -4 4 5 18 19 31 26 24 38 54 17 41 -5
-3 -10 1 -10 9 0 12 -10 16 -37 16 -27 0 -34 -3 -23 -10 11 -7 8 -11 -15 -20
-24 -9 -31 -8 -42 5 -15 21 -27 14 -58 -36 -23 -35 -28 -38 -57 -32 -18 3 -48
12 -66 21 -35 16 -144 10 -150 -8 -5 -12 -52 -13 -52 -1 0 5 -6 9 -12 8 -36
-1 -46 5 -52 34 -8 43 -40 36 -44 -9 -3 -27 -7 -32 -22 -27 -10 3 -25 -1 -34
-11 -28 -27 -28 -25 -27 156 1 58 -1 140 -4 183 l-5 77 42 0 c24 0 158 -7 298
-15z m145 -528 c136 2 140 -3 30 -32 -50 -13 -70 -11 -59 6 6 10 -29 4 -74
-13 -13 -4 -27 -6 -31 -4 -20 13 -75 16 -87 5 -11 -9 -14 -9 -14 0 0 7 -4 10
-9 6 -5 -3 -12 -1 -16 5 -10 16 -44 11 -65 -10 -24 -24 -52 -27 -44 -5 4 9 0
15 -7 15 -11 0 -11 3 1 10 8 5 10 10 4 10 -22 0 -45 -26 -38 -43 3 -9 10 -17
15 -17 5 0 9 -11 9 -25 0 -14 -4 -25 -9 -25 -11 0 -25 30 -22 47 1 7 -4 10
-12 7 -11 -4 -13 1 -9 21 4 23 2 26 -19 23 -17 -2 -25 2 -27 16 -4 19 2 19
174 10 99 -5 238 -8 309 -7z m285 -6 c0 -14 -12 -22 -47 -31 -26 -6 -52 -15
-58 -19 -5 -5 -28 -14 -50 -21 -74 -23 -167 -72 -161 -85 5 -15 -100 -99 -123
-100 -8 0 -16 -7 -18 -15 -4 -13 -3 -13 6 0 6 8 11 10 11 4 0 -6 -7 -17 -15
-24 -12 -10 -18 -10 -30 0 -13 11 -14 10 -9 -6 3 -11 -12 0 -35 25 -39 40 -41
44 -24 57 21 16 33 18 33 4 0 -5 10 -15 23 -21 22 -11 22 -11 -2 11 -23 23
-23 24 -5 37 17 13 97 52 229 113 70 32 229 89 253 89 15 1 22 -5 22 -18z
m-205 -339 c190 -137 245 -198 245 -273 0 -30 -1 -31 -18 -16 -10 10 -24 17
-30 17 -7 0 -12 5 -12 10 0 26 -19 6 -22 -22 l-3 -33 -29 30 c-18 20 -30 26
-33 17 -3 -6 -9 -10 -14 -6 -5 3 -9 0 -9 -6 0 -6 -4 -9 -8 -6 -5 3 -27 0 -50
-6 -33 -8 -46 -8 -59 3 -13 12 -17 12 -21 1 -3 -10 -8 -7 -19 7 -8 12 -25 21
-41 21 -21 0 -24 2 -12 10 13 8 12 10 -2 10 -10 0 -18 -6 -18 -12 0 -9 -4 -8
-10 2 -5 8 -10 10 -10 4 0 -13 -47 -7 -56 7 -3 5 25 10 63 11 l68 1 -55 6
c-41 5 -49 8 -30 12 22 6 20 7 -10 9 -33 2 -33 3 -10 10 23 7 22 8 -11 9 -43
1 -77 30 -38 32 23 1 22 1 -6 14 l-30 14 28 1 c15 0 27 5 27 10 0 6 -2 10 -4
10 -2 0 -13 3 -23 6 -15 5 -15 4 -3 -5 11 -8 11 -11 2 -11 -20 0 -26 28 -13
58 7 15 36 57 64 94 l51 67 35 -21 c20 -12 77 -51 126 -86z"/>
<path d="M8200 6290 c-135 -3 -228 -7 -207 -8 64 -4 32 -19 -55 -26 -130 -11
-214 -13 -193 -6 21 8 -11 14 -118 23 -42 4 -45 3 -30 -9 15 -12 15 -13 1 -8
-9 3 -30 -2 -47 -10 -16 -9 -40 -16 -53 -16 -13 0 -35 -8 -50 -18 -23 -15 -25
-21 -15 -32 9 -10 9 -11 -1 -6 -15 9 -54 -2 -47 -13 7 -13 -32 -44 -46 -35 -7
4 -10 3 -7 -2 7 -11 -17 -35 -27 -26 -4 4 -6 3 -4 -3 1 -5 0 -30 -4 -55 -3
-25 -9 -84 -12 -132 l-5 -87 27 -14 c16 -8 51 -20 78 -26 30 -7 56 -20 63 -32
12 -19 12 -19 -25 -3 -73 31 -117 45 -130 40 -10 -4 -12 -54 -9 -233 2 -125 5
-236 5 -245 1 -17 36 -18 581 -18 l580 0 0 505 c0 278 -1 504 -2 503 -2 -1
-113 -5 -248 -8z m194 -128 c-12 -10 -50 -38 -86 -64 -58 -41 -69 -54 -89
-107 -18 -45 -29 -61 -44 -62 -16 -1 -16 -2 -3 -6 9 -2 19 -11 22 -19 4 -10
-3 -14 -25 -14 -18 0 -28 -4 -24 -10 3 -5 18 -10 33 -10 33 -1 118 -50 87 -51
-176 -6 -178 -6 -279 -55 -72 -36 -80 -39 -72 -26 2 4 -7 12 -20 19 -15 7 -22
7 -18 1 4 -6 1 -9 -7 -6 -8 3 -14 11 -14 19 0 10 -11 14 -37 13 -23 -1 -36 3
-35 10 1 6 -8 11 -20 10 -12 0 -20 3 -17 8 3 4 13 8 22 9 14 0 13 2 -3 8 -13
5 -24 3 -31 -7 -9 -12 -15 -12 -33 -2 -13 7 -20 17 -17 26 3 8 2 14 -2 14 -4
0 -20 11 -35 24 -42 36 -34 66 23 88 63 24 116 22 175 -7 41 -20 52 -22 65
-11 36 31 108 48 182 44 40 -3 80 -8 88 -12 12 -5 19 3 28 27 18 49 68 102
136 142 59 34 91 39 50 7z m41 -322 c-3 -5 -14 -10 -23 -10 -19 -1 -113 -49
-97 -50 5 0 -15 -16 -45 -36 -30 -21 -93 -75 -140 -120 -47 -46 -109 -99 -138
-118 -48 -31 -178 -73 -189 -62 -3 3 15 10 38 16 52 13 101 31 96 36 -1 2 -31
-6 -66 -16 -43 -14 -88 -20 -144 -19 l-82 2 55 9 c30 5 81 13 113 18 88 14
138 43 243 141 110 102 183 152 274 190 66 28 116 37 105 19z"/>
<path d="M3395 4602 c-69 -23 -153 -108 -180 -182 -25 -70 -27 -207 -2 -263
24 -57 110 -142 170 -168 73 -33 191 -33 261 -1 75 34 128 83 161 148 27 54
30 68 30 159 0 87 -3 106 -25 149 -32 63 -117 140 -176 160 -60 20 -173 19
-239 -2z"/>
<path d="M7190 4606 c-94 -33 -168 -109 -196 -202 -21 -70 -18 -199 6 -251 28
-62 102 -137 163 -164 74 -33 201 -34 272 -1 59 27 129 92 157 146 46 90 43
236 -7 322 -37 63 -118 131 -178 149 -61 18 -169 19 -217 1z"/>
<path d="M1996 4589 c-3 -17 -6 -67 -6 -110 l0 -79 134 0 c74 0 147 5 163 11
51 19 73 48 73 95 0 24 -5 46 -10 49 -6 4 -8 10 -6 14 3 4 -14 18 -38 29 -38
19 -60 22 -173 22 l-130 0 -7 -31z"/>
<path d="M1990 4096 l0 -128 168 4 c186 3 230 15 257 69 19 37 19 89 -1 117
-32 46 -68 55 -251 60 l-173 5 0 -127z"/>
<path d="M4590 4485 l0 -135 118 0 c64 0 133 5 153 10 48 14 85 49 99 97 10
33 9 45 -6 78 -9 22 -18 44 -18 49 -1 5 -10 10 -21 12 -11 1 -36 7 -55 13 -19
6 -88 11 -152 11 l-118 0 0 -135z"/>
<path d="M5830 4295 l0 -327 103 4 c163 6 258 62 319 186 29 59 33 76 33 147
-1 94 -22 149 -81 215 -64 71 -120 92 -256 98 l-118 5 0 -328z"/>
</g>
</svg>
