<?xml version="1.0" standalone="no"?>
<!DOCTYPE svg PUBLIC "-//W3C//DTD SVG 20010904//EN"
 "http://www.w3.org/TR/2001/REC-SVG-20010904/DTD/svg10.dtd">
<svg version="1.0" xmlns="http://www.w3.org/2000/svg"
 width="623.000000pt" height="700.000000pt" viewBox="0 0 623.000000 700.000000"
 preserveAspectRatio="xMidYMid meet">
<metadata>
Created by potrace 1.16, written by Peter Selinger 2001-2019
</metadata>
<g transform="translate(0.000000,700.000000) scale(0.100000,-0.100000)"
fill="#000000" stroke="none">
<path d="M929 6873 c-6 -15 -20 -64 -31 -107 -37 -147 -13 -276 71 -380 17
-22 30 -41 28 -43 -3 -2 -28 12 -56 32 -92 61 -161 73 -348 58 -51 -3 -83 -10
-83 -17 0 -20 86 -140 135 -189 27 -26 74 -60 104 -75 49 -24 67 -27 153 -27
54 0 98 -2 98 -5 0 -3 -9 -34 -21 -70 -29 -95 -35 -199 -15 -294 11 -54 16
-130 16 -250 l0 -172 -35 -33 c-50 -46 -77 -105 -83 -177 -6 -85 17 -150 79
-218 l49 -54 0 -90 0 -89 72 -2 c39 -1 73 -3 75 -5 5 -5 -260 -16 -497 -21
-113 -3 -207 -5 -210 -5 -9 0 79 -86 193 -186 l117 -104 319 0 c387 0 364 8
370 -124 l3 -86 -226 0 -226 0 0 -970 0 -970 2183 2 2182 3 5 1740 c5 1619 6
1743 22 1790 25 70 23 200 -3 313 -19 82 -20 116 -17 381 2 160 1 291 -2 291
-3 0 -28 -23 -55 -51 -92 -94 -159 -133 -362 -209 -56 -21 -123 -51 -147 -65
-33 -19 -53 -25 -74 -21 -45 10 -124 77 -157 133 -16 29 -33 53 -36 53 -3 0
-15 -28 -26 -62 l-20 -63 -1646 -3 -1647 -2 0 37 c0 64 -27 166 -57 221 -32
58 -100 143 -150 185 l-33 29 -11 -29z m4072 -736 c12 -23 36 -60 54 -82 53
-66 92 -144 77 -154 -7 -4 -17 -34 -22 -67 -5 -32 -14 -72 -19 -89 -16 -54
-69 -182 -90 -216 l-21 -34 0 65 c-1 86 -24 234 -54 347 -14 51 -27 130 -30
177 l-5 85 37 40 37 41 7 -35 c4 -20 17 -54 29 -78z m-3441 23 c0 -5 -8 -10
-17 -10 -12 0 -8 -5 11 -15 16 -9 31 -13 34 -10 3 2 -2 7 -11 11 -9 3 -13 12
-11 19 3 8 12 11 20 8 8 -3 11 -10 7 -16 -3 -6 -1 -7 6 -3 18 12 107 -81 133
-138 30 -67 32 -193 4 -246 -46 -88 -113 -146 -178 -156 -57 -8 -141 -5 -152
6 -5 5 -21 10 -34 10 -13 0 -20 4 -17 10 3 6 0 10 -7 10 -7 0 -32 18 -56 40
-23 22 -39 40 -36 40 4 0 1 6 -6 14 -6 8 -18 12 -26 9 -9 -3 -14 1 -14 12 0 9
-4 13 -10 10 -5 -3 -10 -2 -10 4 0 5 5 11 11 13 8 3 9 15 4 38 -8 35 -8 35
-18 10 l-10 -25 -8 30 c-7 24 -8 22 -4 -15 3 -35 1 -41 -7 -26 -6 10 -8 34 -5
52 4 20 2 32 -4 29 -5 -4 -9 -2 -9 4 0 5 5 13 10 16 6 3 10 1 10 -6 0 -7 8 -5
20 6 18 17 20 17 14 2 -3 -9 -10 -17 -16 -17 -5 0 -6 -5 -3 -10 8 -13 45 26
45 48 0 43 110 178 137 168 7 -3 10 1 6 10 -3 9 1 14 13 15 16 0 15 2 -3 9
-30 12 -29 15 6 15 16 0 28 -2 26 -5 -2 -3 18 -6 44 -6 34 -1 41 1 26 7 -16 7
-14 9 11 6 22 -2 35 2 43 15 12 19 31 24 31 8z m685 -88 c34 -30 36 -63 4 -85
-10 -8 -17 -16 -14 -19 3 -3 -11 -5 -30 -6 -26 -1 -34 2 -28 11 4 8 1 7 -10
-2 -18 -14 -23 -26 -7 -16 5 3 18 -3 30 -15 11 -11 27 -20 36 -20 8 0 12 -5 9
-11 -4 -6 -13 -8 -21 -5 -8 3 -14 1 -14 -4 0 -6 -3 -9 -7 -8 -13 2 -43 -14
-43 -23 0 -5 7 -9 15 -9 8 0 15 -7 15 -15 0 -9 7 -18 15 -21 23 -9 7 -24 -26
-24 -16 0 -29 -4 -29 -9 0 -12 39 -25 65 -23 19 2 19 2 1 -10 -34 -23 -171
-130 -187 -147 -8 -9 -36 -36 -62 -61 -40 -37 -45 -40 -35 -17 7 15 18 27 24
27 7 0 15 12 18 26 5 18 12 24 22 20 10 -4 18 1 21 14 3 11 9 17 14 14 5 -3 9
0 9 5 0 6 -4 11 -9 11 -5 0 -7 9 -4 20 3 11 9 20 13 20 4 0 10 7 14 15 3 9 0
15 -9 15 -8 0 -19 -17 -25 -40 -12 -46 -25 -44 -57 6 -21 32 -22 40 -12 80 7
26 10 89 7 151 -3 74 -2 99 5 82 5 -14 11 -19 14 -11 8 21 25 13 18 -9 -5 -15
-4 -19 4 -15 7 5 11 -3 10 -21 0 -24 -2 -25 -8 -8 -7 16 -9 12 -13 -20 -5 -42
-2 -57 10 -38 4 6 26 16 50 22 25 7 42 18 42 26 0 8 6 15 13 15 16 0 57 37 57
51 0 6 -7 8 -15 5 -13 -5 -15 0 -9 32 13 75 65 94 119 44z m1470 0 c6 -4 26
-7 45 -8 105 -4 106 -4 86 -16 -11 -6 -41 -8 -75 -4 -36 4 -51 3 -42 -3 11 -7
4 -11 -25 -16 -21 -4 -43 -8 -48 -9 -5 -1 8 -10 29 -21 37 -17 41 -17 68 -1
41 23 67 21 67 -6 0 -12 7 -30 17 -40 9 -10 11 -18 5 -18 -6 0 -9 -7 -6 -15 7
-17 -11 -21 -21 -5 -3 6 -14 10 -22 10 -14 0 -13 -4 5 -20 12 -11 33 -20 47
-20 14 0 25 -4 25 -10 0 -5 5 -10 11 -10 8 0 8 4 0 13 -12 15 -44 157 -37 165
3 2 27 6 53 8 26 2 42 1 36 -2 -7 -3 -13 -12 -13 -19 0 -7 -6 -16 -12 -18 -8
-3 -5 -6 5 -6 20 -1 50 23 40 33 -4 3 6 6 20 6 16 0 27 -6 27 -14 0 -19 23
-26 63 -21 l32 5 -27 -11 c-33 -13 -36 -29 -8 -36 11 -3 20 -14 20 -24 0 -11
5 -19 10 -19 6 0 10 -13 10 -29 0 -22 -5 -30 -24 -33 -13 -3 -32 -1 -41 4 -9
6 -22 7 -30 4 -10 -4 -13 4 -10 35 3 21 0 39 -5 39 -6 0 -10 -4 -10 -10 0 -5
-15 -7 -32 -5 l-33 5 33 -10 c39 -13 40 -41 2 -50 -22 -5 -19 -8 24 -24 57
-22 142 -34 133 -19 -4 6 6 9 23 8 17 -1 30 2 30 7 0 4 5 8 10 8 6 0 10 -14
10 -30 0 -27 -2 -29 -19 -21 -14 8 -22 7 -30 -3 -9 -10 -8 -15 5 -20 9 -3 20
-4 25 0 5 3 9 -5 10 -18 1 -23 1 -23 9 2 9 27 13 19 10 -17 -1 -17 4 -23 20
-23 12 0 18 4 15 10 -4 6 -11 7 -17 4 -7 -4 -8 -2 -4 4 7 12 36 5 36 -9 0 -4
-6 -12 -14 -16 -7 -4 -16 -17 -20 -29 -5 -17 -2 -20 15 -19 12 1 28 10 37 21
13 18 14 17 8 -15 -7 -39 -16 -52 -23 -34 -4 10 -8 9 -20 -2 -22 -23 -33 -18
-49 20 -14 34 -32 51 -20 19 3 -9 -12 -2 -39 17 -25 18 -45 34 -45 36 0 6 22
-7 43 -25 19 -17 22 -10 7 19 -6 10 -17 19 -25 19 -8 0 -15 6 -15 13 0 6 -5 4
-11 -6 -6 -9 -15 -15 -20 -12 -5 4 -6 11 -3 17 5 7 2 8 -6 3 -7 -4 -15 -4 -19
1 -9 13 -58 41 -118 69 -29 14 -53 30 -53 35 0 6 -5 8 -10 5 -6 -3 -23 3 -39
14 -16 12 -36 21 -45 21 -17 0 -98 30 -106 39 -3 3 -12 7 -20 8 -8 1 -58 13
-111 27 -140 36 -245 48 -414 48 -168 -1 -328 -24 -459 -66 -59 -19 -83 -23
-93 -15 -15 13 -17 29 -3 29 6 0 10 -7 10 -15 0 -9 6 -12 15 -9 8 4 12 10 9
15 -3 5 15 9 39 9 30 0 49 6 58 17 12 15 12 16 -1 8 -19 -12 -50 -7 -70 10
-19 16 -90 8 -90 -11 0 -7 -5 -16 -11 -19 -6 -4 -10 -1 -8 6 4 33 -1 39 -31
34 -22 -4 -32 -1 -36 10 -8 19 -40 20 -48 0 -8 -21 -23 -19 -36 5 -11 20 -9
21 117 17 70 -3 139 -9 153 -14 14 -6 43 -9 65 -7 33 3 36 2 15 -5 -24 -9 -24
-9 7 -10 20 -1 32 4 30 10 -3 14 44 23 52 10 3 -4 22 -11 41 -15 26 -4 30 -3
15 3 -11 5 -18 10 -15 11 29 8 50 8 45 0 -3 -5 1 -10 9 -10 9 0 16 4 16 8 0 9
57 13 262 15 87 1 158 5 158 10 0 4 -10 8 -22 9 -43 2 -47 3 -55 12 -4 5 16 6
47 2 30 -3 65 -6 78 -6 13 0 21 -4 18 -9 -4 -5 0 -12 6 -14 7 -3 0 -6 -17 -6
l-30 -1 29 -15 c32 -17 50 -19 42 -6 -3 4 14 7 39 5 29 -3 48 1 59 11 8 8 30
15 48 16 18 1 44 5 58 10 20 7 18 8 -12 3 -37 -5 -62 11 -31 19 21 6 124 -2
138 -11z m-327 -321 c51 -11 123 -29 160 -41 101 -33 298 -133 377 -192 146
-109 336 -322 401 -450 63 -124 137 -327 155 -428 22 -119 26 -336 9 -466 -13
-95 -49 -234 -60 -234 -5 0 -39 11 -77 24 -84 31 -190 59 -308 83 -129 26
-586 26 -725 0 -432 -82 -752 -239 -1039 -512 -48 -46 -101 -103 -116 -126
l-29 -41 -39 43 c-68 78 -117 145 -117 162 0 25 78 186 123 252 192 286 444
535 681 674 23 13 43 27 46 30 6 7 45 28 170 91 119 61 173 84 244 104 31 9
56 19 56 22 0 3 -10 2 -22 -2 -13 -3 -20 -3 -16 1 3 4 25 11 48 16 23 5 49 17
58 25 10 11 26 14 49 11 18 -3 33 -2 33 2 0 4 26 8 58 8 79 1 100 5 167 33 29
12 75 18 75 10 0 -4 17 -4 38 -1 20 4 90 6 155 6 64 -1 117 3 117 7 0 5 5 6
12 2 7 -4 8 -3 4 4 -4 7 -20 12 -37 12 -16 0 -29 4 -29 9 0 10 67 23 90 17 64
-17 81 -33 35 -33 -30 0 -40 -7 -30 -22 9 -15 50 -14 64 2 14 18 -8 67 -31 67
-9 0 -19 4 -23 9 -3 6 -15 7 -28 4 -12 -3 -45 -8 -73 -10 -45 -4 -52 -2 -57
16 -5 22 -41 29 -52 11 -4 -6 -11 -8 -16 -5 -5 4 -9 1 -9 -4 0 -15 -37 -14
-42 1 -4 10 -11 10 -34 -1 -16 -7 -58 -19 -94 -26 -36 -7 -72 -16 -81 -19 -13
-6 -15 -2 -11 20 4 24 2 26 -14 19 -10 -4 -29 -10 -41 -12 -13 -3 -23 -9 -23
-14 0 -5 -5 -9 -11 -9 -5 0 -7 5 -4 10 3 6 0 10 -7 11 -10 0 -10 2 0 6 6 2 12
11 12 19 0 15 -12 19 -24 7 -4 -4 -21 -8 -39 -9 -47 -2 -106 -28 -130 -56 -22
-25 -50 -28 -41 -4 7 19 -87 16 -106 -3 -8 -9 -28 -17 -45 -18 -28 -2 -29 -1
-11 12 30 22 9 18 -50 -10 -51 -24 -76 -45 -55 -45 6 0 11 -4 11 -10 0 -5 -13
-7 -30 -3 -17 3 -30 1 -30 -5 0 -5 -10 -12 -22 -16 -20 -5 -21 -8 -8 -17 16
-12 18 -12 -38 5 -15 5 -24 3 -28 -8 -3 -8 -12 -12 -20 -9 -8 3 -14 -1 -14
-10 0 -9 -12 -16 -30 -19 -30 -5 -30 -4 -10 14 22 21 231 128 249 128 7 0 33
11 59 24 26 13 106 43 177 66 158 51 160 52 160 76 0 16 -6 18 -40 16 -37 -2
-39 -2 -21 13 17 13 17 15 4 15 -9 0 -20 5 -24 12 -4 6 -3 8 3 5 6 -4 19 0 29
7 18 14 18 15 -9 40 -32 30 -37 31 -37 11 0 -12 -16 -15 -80 -15 -47 0 -80 -4
-80 -10 0 -5 -7 -10 -15 -10 -8 0 -15 -9 -15 -20 0 -12 -7 -20 -17 -20 -15 0
-16 -2 -3 -10 20 -13 -101 -12 -240 1 -146 15 -254 18 -238 8 11 -7 10 -11 -2
-19 -8 -5 -22 -10 -32 -10 -9 0 -76 -7 -149 -15 -108 -13 -134 -14 -140 -3 -7
10 -9 10 -9 -2 -1 -9 -7 -4 -15 11 -11 21 -21 26 -45 24 -17 -1 -33 1 -36 6
-3 5 0 9 5 9 6 0 11 5 11 11 0 6 -6 9 -14 6 -10 -4 -18 4 -25 21 -5 15 -10 21
-10 15 -1 -16 -31 -17 -31 -2 0 5 4 7 10 4 6 -3 7 1 4 9 -3 9 -14 16 -23 16
-14 0 -14 -2 -1 -10 13 -8 8 -14 -11 -12 -4 1 -6 -10 -6 -23 0 -14 3 -22 8
-19 5 3 9 0 9 -5 0 -6 -4 -11 -10 -11 -5 0 -9 -4 -7 -8 1 -4 -10 -20 -25 -34
-15 -14 -25 -28 -22 -31 4 -3 15 4 25 16 10 12 18 16 19 10 0 -7 -3 -13 -7
-13 -5 0 -15 -13 -24 -28 -13 -23 -24 -29 -53 -30 -20 -1 -36 3 -36 9 0 7 -10
9 -24 5 -14 -3 -28 -2 -31 4 -3 5 0 10 7 10 8 0 14 15 16 37 2 35 1 36 -16 20
-10 -10 -24 -17 -30 -17 -6 0 -19 -11 -30 -25 -14 -17 -22 -21 -25 -13 -4 9
-6 7 -6 -3 -1 -9 6 -19 14 -23 8 -3 15 -10 15 -15 0 -12 -33 -9 -42 4 -7 9
-13 -16 -9 -37 0 -5 -6 -8 -14 -8 -17 0 -13 14 34 114 53 115 128 220 262 369
10 11 23 15 35 11 15 -5 16 -4 4 5 -8 5 -12 12 -10 14 3 1 30 24 60 49 163
135 413 250 616 282 54 9 110 18 124 20 59 11 319 -4 408 -23z m1666 -469 c9
-14 67 -523 61 -532 -4 -6 -68 -10 -146 -10 l-139 0 0 48 c0 72 21 475 25 490
5 14 190 18 199 4z m-3644 -102 c0 -5 -4 -10 -10 -10 -5 0 -10 -5 -10 -11 0
-7 7 -8 18 -4 9 4 25 8 35 10 9 2 21 7 27 10 12 8 23 -37 18 -75 -4 -23 0 -30
16 -33 12 -2 3 -5 -19 -7 -89 -5 -98 -16 -15 -16 47 -1 95 -4 107 -8 23 -7 23
-7 24 58 1 20 4 25 9 16 7 -11 13 -6 27 18 31 54 32 35 2 -28 -16 -33 -29 -64
-29 -70 0 -6 -75 -10 -210 -10 -133 0 -210 4 -210 10 0 10 50 15 98 11 12 -1
22 3 22 8 0 6 26 12 58 14 31 2 12 3 -43 1 -88 -2 -98 -1 -80 11 11 8 26 19
33 25 10 9 17 9 27 0 8 -6 19 -8 26 -4 8 5 7 10 -5 16 -16 9 -16 11 0 29 9 10
25 19 34 19 10 0 20 7 24 15 6 17 26 21 26 5z m3698 -647 l3 -73 -141 0 -140
0 0 69 c0 46 4 71 13 74 6 3 68 4 137 3 l125 -1 3 -72z m-61 -223 l32 0 1
-949 0 -948 -67 -5 c-38 -3 -88 -2 -113 2 -25 4 -37 8 -27 9 16 1 17 29 15
454 -1 248 -3 428 -5 400 -2 -29 -8 -53 -13 -53 -10 0 -4 58 11 110 7 23 10
201 7 508 -3 530 -11 484 77 476 28 -2 64 -4 82 -4z m-3625 -377 c2 -32 1 -73
-1 -90 l-3 -33 -74 0 -74 0 0 90 0 90 74 0 74 0 4 -57z m3236 -611 c-3 -149
-5 -163 -24 -176 -32 -22 -151 -124 -448 -381 -153 -132 -294 -253 -313 -270
l-36 -29 -16 23 c-20 30 -161 294 -161 302 0 4 39 23 88 44 115 49 274 144
371 222 84 67 227 213 296 303 59 78 154 241 195 337 l35 82 8 -147 c4 -81 6
-220 5 -310z m-3034 368 c30 -77 127 -239 198 -332 179 -231 413 -417 658
-523 47 -21 89 -41 93 -45 11 -9 -156 -314 -174 -318 -8 -1 -66 44 -130 100
-63 57 -242 213 -397 347 l-282 243 0 296 c0 163 4 292 8 287 5 -6 17 -30 26
-55z m-278 -743 l4 -525 -35 -4 -35 -4 0 530 c0 291 3 527 6 524 3 -3 6 -20 6
-37 1 -40 21 -25 20 16 0 35 7 48 20 35 6 -6 12 -205 14 -535z m1871 224 c71
-52 91 -128 52 -207 -55 -114 -214 -122 -285 -14 -51 77 -31 176 46 227 51 35
134 32 187 -6z m1443 -521 c0 -177 -3 -232 -13 -235 -7 -3 -130 -4 -275 -3
l-262 3 267 233 c147 127 271 232 275 232 4 0 8 -104 8 -230z m-2955 125 c44
-39 141 -123 215 -187 74 -64 148 -130 164 -147 l30 -31 -262 0 -262 0 0 231
c0 219 1 231 18 218 9 -7 53 -45 97 -84z m1209 -134 c62 -41 81 -106 52 -176
-26 -61 -124 -88 -181 -51 -35 23 -65 74 -65 111 0 100 114 168 194 116z m544
-1 c57 -35 77 -111 46 -176 -17 -36 -81 -74 -125 -74 -38 0 -86 36 -109 81
-62 120 71 240 188 169z"/>
<path d="M523 5665 c-54 -38 -50 -141 7 -170 87 -45 180 30 150 119 -15 46
-44 66 -95 66 -22 0 -50 -7 -62 -15z"/>
<path d="M5601 5654 c-26 -22 -31 -33 -31 -71 0 -36 6 -50 30 -75 28 -27 36
-30 73 -25 30 4 50 15 70 37 82 92 -47 214 -142 134z"/>
<path d="M488 5060 c-25 -26 -29 -36 -24 -63 9 -46 51 -80 90 -73 35 7 76 48
76 76 0 49 -41 90 -91 90 -11 0 -34 -14 -51 -30z"/>
<path d="M5713 5080 c-45 -18 -58 -95 -23 -130 28 -28 63 -34 99 -16 58 30 67
82 22 127 -30 29 -58 35 -98 19z"/>
<path d="M5604 4611 c-56 -24 -73 -113 -30 -156 34 -34 71 -41 112 -22 63 30
78 107 30 155 -25 25 -80 36 -112 23z"/>
<path d="M525 4105 c-16 -15 -25 -36 -25 -55 0 -39 39 -80 76 -80 34 0 80 34
88 65 7 29 -15 79 -39 89 -35 13 -76 6 -100 -19z"/>
<path d="M5681 4104 c-28 -36 -27 -79 4 -109 28 -29 54 -31 94 -10 32 16 41
33 41 75 0 67 -97 97 -139 44z"/>
<path d="M4470 1768 c-121 -17 -249 -99 -319 -205 -94 -142 -94 -364 -1 -506
40 -60 127 -139 183 -166 195 -95 447 -43 582 118 176 212 140 516 -79 678
-94 70 -229 99 -366 81z m204 -232 c201 -117 168 -408 -53 -473 -68 -19 -126
-12 -192 24 -84 45 -129 124 -129 227 0 111 68 208 170 241 64 21 150 13 204
-19z"/>
<path d="M160 1310 l0 -462 223 4 c240 5 271 10 350 65 80 56 116 171 83 270
-19 56 -75 117 -124 134 l-34 11 31 32 c85 88 81 234 -9 325 -66 66 -102 74
-322 79 l-198 4 0 -462z m333 258 c53 -28 64 -97 22 -142 -21 -23 -32 -26 -85
-26 l-60 0 0 90 0 90 51 0 c28 0 60 -5 72 -12z m39 -348 c74 -21 103 -103 52
-151 -23 -21 -36 -24 -120 -27 l-94 -4 0 96 0 96 63 0 c34 0 79 -5 99 -10z"/>
<path d="M1338 1760 c-168 -42 -309 -198 -339 -374 -54 -323 238 -600 561
-532 199 42 334 177 376 376 41 198 -72 413 -264 503 -61 28 -76 31 -182 34
-63 1 -132 -2 -152 -7z m213 -205 c55 -20 125 -86 152 -145 60 -132 -13 -297
-152 -345 -164 -56 -340 69 -341 241 -1 184 170 309 341 249z"/>
<path d="M2162 1313 l3 -458 103 -3 102 -3 0 161 0 160 44 0 44 0 102 -160
102 -160 119 0 c67 0 119 4 119 9 0 5 -52 88 -115 183 l-115 173 28 20 c86 62
121 129 122 231 0 59 -5 81 -31 132 -35 70 -71 104 -149 141 -53 25 -63 26
-268 29 l-212 3 2 -458z m404 223 c28 -28 34 -42 34 -75 0 -80 -69 -124 -179
-113 l-51 5 0 108 0 109 81 0 c79 0 82 -1 115 -34z"/>
<path d="M3112 1313 l3 -458 179 -3 c210 -3 265 5 366 55 157 77 250 226 250
404 0 189 -125 364 -308 431 -50 19 -85 22 -275 26 l-217 4 2 -459z m424 229
c100 -51 154 -133 154 -234 0 -72 -20 -121 -68 -171 -61 -64 -104 -80 -207
-81 l-90 -1 -3 259 -2 259 88 -5 c61 -4 100 -11 128 -26z"/>
<path d="M5210 1310 l0 -460 100 0 100 0 2 254 3 254 93 -121 c51 -67 136
-182 189 -254 l97 -133 83 0 83 0 0 460 0 460 -100 0 -100 0 0 -255 c0 -140
-3 -255 -7 -255 -5 0 -93 115 -197 255 l-189 255 -78 0 -79 0 0 -460z"/>
<path d="M1765 588 c-50 -17 -96 -58 -116 -102 -39 -86 -14 -197 56 -250 131
-100 314 -18 315 142 l0 42 -86 0 -85 0 3 -37 c3 -36 5 -38 38 -38 40 0 42
-16 9 -50 -25 -26 -94 -27 -133 -2 -15 10 -34 35 -43 54 -44 107 66 207 168
154 l40 -21 30 22 c16 12 28 27 26 33 -1 5 -27 22 -57 38 -57 29 -111 34 -165
15z"/>
<path d="M3164 585 c-3 -6 -3 -96 -2 -200 l3 -190 30 -3 c17 -2 63 -1 103 3
l72 7 0 34 c0 33 -1 34 -45 35 -25 1 -49 3 -55 4 -5 1 -14 3 -20 4 -6 1 -10
60 -10 155 l0 154 -36 4 c-21 2 -38 0 -40 -7z"/>
<path d="M2317 583 c-15 -25 -146 -346 -149 -365 -6 -46 71 -36 89 12 l11 30
90 0 c89 0 90 0 102 -29 9 -23 19 -30 47 -33 21 -3 37 0 40 8 2 6 -31 94 -75
195 l-79 184 -35 3 c-20 2 -38 -1 -41 -5z"/>
<path d="M2742 393 l3 -198 100 0 100 0 3 37 3 37 -63 3 -63 3 -3 158 -3 157
-39 0 -40 0 2 -197z"/>
<path d="M3570 400 c0 -172 2 -191 18 -198 9 -4 60 -7 112 -7 l95 0 3 38 c4
41 5 40 -80 37 -55 -2 -56 -1 -63 30 -4 17 -4 34 0 38 4 4 37 9 73 12 67 5 67
5 70 37 l3 32 -73 3 -73 3 0 40 0 40 70 5 70 5 3 38 3 37 -115 0 -116 0 0
-190z"/>
<path d="M4022 393 l3 -198 35 0 35 0 3 68 c2 37 7 67 12 67 6 0 33 -32 61
-71 42 -58 56 -70 73 -65 11 3 31 6 44 6 21 0 19 5 -29 76 -40 60 -48 78 -38
85 8 5 17 9 22 9 15 0 47 66 47 98 0 18 -7 46 -15 62 -24 46 -62 60 -165 60
l-90 0 2 -197z"/>
<path d="M4499 553 c11 -21 42 -72 70 -113 48 -71 50 -76 45 -130 -7 -75 6
-115 37 -116 47 -1 49 4 49 95 l0 88 70 102 c39 56 70 104 70 106 0 3 -21 5
-48 5 -47 0 -47 0 -91 -65 -24 -36 -46 -64 -47 -62 -2 2 -22 31 -44 65 -39 61
-40 62 -85 62 l-45 0 19 -37z"/>
</g>
</svg>
