<?xml version="1.0" standalone="no"?>
<!DOCTYPE svg PUBLIC "-//W3C//DTD SVG 20010904//EN"
 "http://www.w3.org/TR/2001/REC-SVG-20010904/DTD/svg10.dtd">
<svg version="1.0" xmlns="http://www.w3.org/2000/svg"
 width="501.000000pt" height="516.000000pt" viewBox="0 0 501.000000 516.000000"
 preserveAspectRatio="xMidYMid meet">
<metadata>
Created by potrace 1.16, written by Peter Selinger 2001-2019
</metadata>
<g transform="translate(0.000000,516.000000) scale(0.100000,-0.100000)"
fill="#000000" stroke="none">
<path d="M2235 5069 c-419 -57 -816 -218 -1148 -467 -118 -88 -373 -339 -467
-460 -268 -343 -441 -728 -510 -1133 -70 -413 -45 -794 76 -1169 299 -929
1076 -1586 2015 -1706 167 -21 556 -15 719 11 577 92 1077 372 1445 810 316
376 499 776 582 1272 25 153 25 529 -1 698 -91 601 -365 1113 -821 1533 -259
239 -611 435 -964 537 -211 60 -337 77 -611 80 -135 2 -276 -1 -315 -6z m207
-394 c1 -146 2 -280 2 -297 l1 -33 -192 -5 c-216 -6 -227 -9 -227 -75 0 -67
11 -70 224 -70 l190 0 1 -150 c1 -82 2 -162 3 -177 l2 -28 -382 0 c-210 0
-389 -3 -398 -6 -14 -6 -16 -121 -16 -1210 l0 -1204 23 -5 c12 -3 189 -5 393
-3 l371 3 6 -175 c3 -96 3 -178 0 -182 -2 -5 -87 -8 -189 -8 -106 0 -193 -4
-204 -10 -27 -15 -36 -74 -16 -105 l16 -25 195 0 195 0 0 -325 0 -325 -72 6
c-649 51 -1195 332 -1609 824 -291 346 -488 828 -534 1303 l-7 68 74 -3 73 -3
7 -89 c13 -168 67 -389 141 -576 200 -505 571 -919 1033 -1154 210 -106 451
-184 655 -212 l120 -16 25 23 c29 27 32 71 6 97 -12 12 -47 23 -98 31 -492 77
-955 336 -1259 706 -247 300 -416 678 -464 1040 -6 44 -13 96 -16 116 l-5 37
57 4 c69 6 98 33 89 83 -9 42 -31 55 -94 55 l-54 0 7 83 c37 447 171 807 428
1151 74 98 244 274 348 362 270 226 602 378 954 438 67 12 94 21 108 37 24 29
21 63 -7 95 l-23 28 -84 -14 c-119 -19 -317 -71 -434 -115 -294 -110 -537
-267 -765 -495 -309 -308 -515 -673 -614 -1086 -30 -127 -56 -310 -56 -398 0
-83 -4 -88 -81 -84 l-64 3 -3 43 c-2 24 4 105 12 179 44 383 170 730 379 1045
289 435 663 740 1134 924 193 76 478 138 656 143 l37 1 2 -265z m428 233 c937
-152 1712 -912 1904 -1869 29 -141 49 -323 44 -389 l-3 -45 -65 0 -65 0 -8 75
c-40 389 -92 589 -227 866 -153 315 -409 626 -685 829 -284 210 -633 356 -973
406 -80 12 -84 12 -104 -9 -25 -25 -28 -86 -6 -108 7 -8 65 -23 128 -34 434
-78 803 -277 1128 -610 323 -331 522 -753 577 -1228 8 -70 15 -142 15 -159 0
-33 0 -33 -52 -33 -34 0 -58 -6 -70 -17 -18 -16 -24 -68 -10 -90 11 -17 58
-33 98 -33 41 0 40 3 18 -147 -78 -528 -353 -1012 -760 -1338 -272 -219 -598
-359 -954 -411 -58 -9 -111 -21 -117 -27 -25 -24 -26 -71 -3 -100 22 -27 25
-28 89 -22 306 30 653 153 931 331 511 325 898 968 970 1609 5 50 10 93 10 98
0 4 32 7 71 7 l72 0 -7 -77 c-59 -680 -446 -1347 -1006 -1734 -129 -89 -371
-211 -524 -263 -174 -59 -420 -109 -603 -121 l-93 -6 0 326 0 325 179 0 c159
0 181 2 202 18 31 26 31 78 0 104 -21 16 -43 18 -202 18 l-178 0 -3 179 -3
178 200 6 c137 4 219 11 259 22 185 50 314 189 367 393 37 145 22 392 -32 537
-75 201 -238 353 -430 400 -35 9 -130 19 -211 22 l-148 6 0 88 0 89 228 0
c239 0 287 7 370 49 154 79 242 274 201 450 -36 156 -163 289 -328 343 -56 18
-98 22 -268 26 l-203 4 0 174 0 173 179 3 c159 3 181 5 200 22 26 24 27 66 2
97 -19 23 -24 24 -200 27 l-181 3 0 300 0 301 78 -7 c42 -3 133 -15 202 -27z
m-430 -1503 l0 -285 -214 0 c-211 0 -215 0 -230 -22 -23 -33 -20 -75 9 -103
24 -25 25 -25 230 -25 l205 0 0 -145 0 -145 -317 2 -318 3 -3 503 -2 502 320
0 320 0 0 -285z m555 270 c141 -37 255 -168 255 -295 0 -88 -63 -189 -144
-233 -38 -20 -57 -22 -278 -25 l-238 -4 0 286 0 286 173 0 c123 0 190 -4 232
-15z m-160 -1044 c128 -15 186 -42 270 -125 116 -114 163 -232 172 -431 9
-202 -28 -319 -132 -414 -90 -81 -135 -94 -362 -99 l-193 -4 0 321 0 321 166
0 c97 0 173 4 185 11 46 24 42 105 -7 128 -15 7 -87 11 -184 11 l-160 0 0 145
0 145 83 0 c45 0 118 -4 162 -9z m-395 -186 l0 -95 -199 0 c-185 0 -200 -1
-225 -21 -20 -16 -26 -29 -26 -59 0 -66 13 -70 247 -70 l203 0 0 -320 0 -320
-320 0 -320 0 0 490 0 490 320 0 320 0 0 -95z"/>
<path d="M890 2826 c-18 -23 -18 -590 1 -612 16 -20 188 -19 256 1 127 38 170
182 87 290 l-34 45 20 40 c40 79 14 177 -60 223 -29 18 -53 22 -145 25 -94 3
-113 1 -125 -12z m210 -359 c35 -18 50 -53 38 -88 -13 -37 -35 -49 -92 -49
l-46 0 0 68 c0 38 3 72 7 75 11 11 66 8 93 -6z"/>
<path d="M3784 2830 c-71 -28 -137 -89 -171 -158 -24 -50 -28 -69 -28 -147 0
-80 3 -97 30 -148 37 -74 109 -139 183 -167 74 -28 193 -24 267 9 87 39 85 34
85 206 0 130 -2 154 -16 159 -9 3 -59 6 -113 6 -111 0 -141 -13 -141 -59 0
-40 28 -61 82 -61 l46 0 6 -45 c9 -54 -5 -82 -42 -92 -102 -27 -206 32 -241
136 -52 155 124 309 257 225 25 -17 29 -15 90 34 42 33 43 35 25 54 -58 64
-218 88 -319 48z"/>
</g>
</svg>
