<?xml version="1.0" standalone="no"?>
<!DOCTYPE svg PUBLIC "-//W3C//DTD SVG 20010904//EN"
 "http://www.w3.org/TR/2001/REC-SVG-20010904/DTD/svg10.dtd">
<svg version="1.0" xmlns="http://www.w3.org/2000/svg"
 width="772.000000pt" height="650.000000pt" viewBox="0 0 772.000000 650.000000"
 preserveAspectRatio="xMidYMid meet">
<metadata>
Created by potrace 1.16, written by Peter Selinger 2001-2019
</metadata>
<g transform="translate(0.000000,650.000000) scale(0.100000,-0.100000)"
fill="#000000" stroke="none">
<path d="M3380 5775 l0 -475 493 2 492 3 3 464 c2 365 0 466 -10 473 -7 4
-230 8 -495 8 l-483 0 0 -475z m830 336 c0 -5 -17 -23 -37 -40 l-38 -31 -265
0 -265 0 -37 33 c-21 18 -38 36 -38 40 0 4 153 7 340 7 202 0 340 -4 340 -9z
m-619 -340 l2 -243 -42 -41 -41 -42 0 325 0 325 40 -40 39 -40 2 -244z m649
-3 l0 -323 -45 47 -45 47 0 234 0 233 36 42 c19 23 40 42 45 42 5 0 9 -132 9
-322z m-400 152 c0 -13 -13 -28 -33 -40 -38 -23 -57 -56 -57 -102 0 -25 10
-41 45 -74 65 -60 61 -74 -20 -74 l-65 0 0 155 0 155 65 0 c59 0 65 -2 65 -20z
m200 -135 l0 -155 -49 0 c-90 0 -101 15 -45 64 62 54 62 135 0 183 -25 20 -33
43 -19 56 3 4 30 7 60 7 l53 0 0 -155z m98 -279 c15 -8 38 -26 51 -40 l24 -26
-338 0 -339 0 30 31 c16 17 38 35 49 39 11 5 127 9 258 9 186 1 244 -2 265
-13z"/>
<path d="M260 5511 c0 -450 3 -690 10 -693 5 -1 292 -1 637 2 l628 5 3 306 2
306 -30 38 c-16 21 -30 41 -30 45 0 4 14 24 30 45 l30 38 0 298 0 299 -640 0
-640 0 0 -689z m1090 519 l-35 -29 -421 -1 -420 0 -29 30 -29 30 485 0 484 -1
-35 -29z m-880 -528 l0 -462 -35 -38 -34 -37 -1 540 0 540 35 -40 34 -40 1
-463z m930 3 c0 -302 -4 -535 -9 -535 -5 0 -20 15 -35 34 l-26 35 0 467 0 467
26 34 c14 18 29 33 35 33 5 0 9 -204 9 -535z m-170 132 l0 -263 -87 -36 -87
-35 -55 53 c-61 58 -141 105 -209 124 l-44 11 7 42 c18 104 123 179 230 163
37 -6 44 -4 59 18 9 14 16 28 16 30 0 17 -67 36 -122 36 -138 0 -249 -97 -273
-239 -4 -23 -12 -41 -20 -41 -7 0 -27 -3 -44 -6 l-31 -6 0 206 0 206 330 0
330 0 0 -263z m-408 -270 c97 -48 194 -152 213 -229 l7 -28 -190 0 c-104 0
-210 3 -236 6 l-46 7 0 128 c0 153 -2 151 116 146 63 -2 93 -9 136 -30z m516
-382 l37 -34 -479 -1 -480 0 34 35 34 35 408 0 408 0 38 -35z"/>
<path d="M6230 5899 l0 -301 31 -39 c33 -41 31 -56 -10 -93 -20 -19 -21 -27
-21 -333 l0 -313 615 0 615 0 0 690 0 690 -615 0 -615 0 0 -301z m1053 154
c15 -3 11 -12 -25 -53 l-43 -49 -372 -1 -373 0 0 -445 0 -445 378 2 377 3 5
440 5 441 36 42 c20 23 39 42 42 42 4 0 7 -239 7 -531 l0 -531 -44 49 c-24 26
-48 45 -52 40 -4 -4 12 -28 36 -52 l44 -45 -457 0 -456 0 42 39 c23 22 38 43
34 47 -4 4 -28 -12 -52 -36 l-45 -44 0 539 0 539 45 -44 c55 -54 74 -45 20 9
l-38 40 39 3 c46 4 820 4 847 1z m-153 -325 c-1 -94 -3 -109 -13 -92 -31 53
-71 93 -117 118 -157 86 -351 22 -406 -133 -12 -33 -13 -25 -14 92 l0 127 275
0 275 0 0 -112z m-192 -47 c107 -55 148 -157 103 -256 -19 -43 -68 -91 -110
-107 -88 -34 -199 6 -247 88 -23 39 -26 53 -22 109 3 53 9 71 34 102 64 79
162 105 242 64z m-83 -464 c47 -1 80 5 101 16 31 16 32 16 70 -18 l39 -34
-214 -1 -215 0 33 34 32 33 42 -15 c23 -8 74 -15 112 -15z"/>
<path d="M6798 5603 c-31 -20 -58 -69 -58 -105 1 -53 59 -108 115 -108 72 0
136 80 115 144 -24 73 -112 108 -172 69z"/>
<path d="M2208 5828 c-25 -25 -23 -44 7 -64 20 -13 50 -15 185 -12 146 3 163
5 176 22 17 24 17 28 1 50 -12 16 -32 19 -182 21 -152 2 -170 0 -187 -17z"/>
<path d="M5127 5832 c-22 -24 -21 -38 3 -62 18 -18 33 -20 194 -20 159 0 175
2 199 20 17 14 24 27 20 38 -13 38 -31 42 -218 42 -164 0 -184 -2 -198 -18z"/>
<path d="M2223 5680 c-30 -12 -31 -55 -3 -70 28 -15 290 -12 321 4 30 14 35
39 14 60 -14 13 -41 16 -163 15 -81 0 -157 -4 -169 -9z"/>
<path d="M5118 5679 c-23 -13 -23 -42 -1 -60 12 -11 60 -14 205 -14 176 0 191
1 204 19 18 25 18 31 -2 50 -13 13 -45 16 -202 16 -108 0 -194 -5 -204 -11z"/>
<path d="M2513 5393 l-313 -3 -6 -26 c-14 -55 -8 -56 357 -55 306 0 334 1 346
17 16 22 16 26 1 47 -18 23 -29 23 -385 20z"/>
<path d="M5171 5388 c-24 -8 -33 -35 -21 -59 10 -17 24 -19 163 -21 204 -3
209 -2 224 18 16 22 16 26 -1 50 -13 17 -28 19 -181 19 -91 0 -174 -3 -184 -7z"/>
<path d="M3595 5059 c-419 -57 -817 -219 -1148 -467 -118 -88 -363 -328 -461
-452 -268 -338 -446 -734 -516 -1141 -69 -408 -44 -798 72 -1158 132 -408 327
-729 623 -1027 366 -368 795 -589 1320 -681 146 -26 623 -25 785 0 587 93
1083 370 1455 812 310 368 490 756 577 1242 19 110 22 162 23 368 0 276 -14
388 -75 630 -242 953 -1021 1687 -1970 1855 -101 18 -171 23 -370 25 -135 2
-276 -1 -315 -6z m205 -376 c0 -137 3 -271 6 -300 l7 -52 -196 -3 c-220 -3
-231 -7 -231 -73 0 -67 11 -70 224 -70 l190 0 1 -155 c0 -85 2 -165 3 -177 l3
-23 -383 0 c-210 0 -389 -3 -398 -6 -14 -6 -16 -121 -16 -1209 0 -1121 1
-1203 17 -1209 9 -4 187 -6 395 -6 l378 2 2 -179 3 -178 -198 -5 c-212 -5
-209 -5 -224 -59 -3 -15 0 -35 8 -50 l15 -26 197 -3 197 -2 2 -295 c1 -162 2
-307 2 -322 l1 -28 -75 3 c-180 7 -452 63 -641 132 -46 17 -147 62 -224 99
-715 352 -1201 1071 -1280 1894 l-7 68 74 -3 73 -3 3 -50 c1 -27 9 -94 17
-147 107 -690 553 -1314 1161 -1621 227 -115 466 -191 682 -217 91 -11 95 -11
118 11 29 27 31 72 6 97 -12 12 -47 23 -98 31 -348 54 -716 215 -977 428 -118
96 -196 173 -282 278 -271 330 -429 708 -479 1146 l-5 47 56 4 c69 6 98 34 89
83 -9 42 -31 55 -94 55 l-54 0 6 78 c39 455 171 810 429 1156 74 98 244 274
348 362 281 234 623 386 1011 449 66 10 88 71 44 121 l-23 28 -84 -14 c-201
-32 -440 -108 -634 -200 -99 -47 -278 -160 -365 -229 -409 -325 -696 -774
-815 -1271 -29 -123 -55 -308 -55 -394 0 -83 -4 -88 -81 -84 l-64 3 -3 43 c-5
66 24 299 54 431 156 701 632 1310 1273 1631 256 128 606 222 854 229 l37 1 0
-247z m425 217 c688 -108 1315 -561 1668 -1205 165 -300 274 -689 280 -991 l2
-109 -65 0 -65 0 -8 75 c-39 383 -93 588 -227 865 -152 315 -409 627 -685 830
-284 210 -633 356 -973 406 -80 12 -84 12 -104 -9 -25 -25 -28 -86 -6 -108 7
-8 65 -23 128 -34 385 -69 724 -237 1022 -506 387 -350 617 -797 683 -1325 8
-68 15 -140 15 -161 l0 -38 -53 0 c-73 0 -100 -30 -84 -92 8 -29 48 -48 103
-48 42 0 42 -6 14 -175 -113 -671 -520 -1240 -1092 -1527 -193 -97 -430 -170
-638 -198 -93 -12 -107 -20 -116 -65 -4 -22 0 -38 16 -58 22 -27 25 -28 89
-22 306 30 653 153 931 331 511 325 898 968 970 1609 5 50 10 93 10 98 0 4 32
7 70 7 l70 0 0 -29 c0 -17 -7 -83 -15 -147 -77 -585 -398 -1158 -856 -1531
-329 -268 -771 -444 -1209 -483 -63 -5 -123 -10 -132 -10 -17 0 -18 22 -18
325 l0 325 179 0 c159 0 181 2 202 18 31 26 31 78 0 104 -21 16 -43 18 -202
18 l-178 0 -3 179 -3 178 200 6 c139 4 218 10 259 21 245 67 387 283 388 589
1 181 -32 326 -105 457 -44 79 -158 188 -243 232 -98 51 -174 68 -346 75
l-148 6 0 88 0 89 228 0 c239 0 287 7 370 49 154 79 242 274 201 450 -36 156
-163 289 -328 343 -56 18 -98 22 -268 26 l-203 4 0 177 0 176 179 0 c162 0
181 2 200 19 26 24 27 66 2 97 -19 23 -24 24 -200 27 l-181 3 0 300 0 301 78
-7 c42 -4 131 -15 197 -25z m-425 -1505 l0 -285 -214 0 c-211 0 -215 0 -230
-22 -23 -33 -20 -75 9 -103 24 -25 25 -25 230 -25 l205 0 0 -145 0 -145 -320
0 -320 0 0 505 0 505 320 0 320 0 0 -285z m555 270 c141 -37 255 -168 255
-295 0 -88 -63 -189 -144 -233 -38 -20 -57 -22 -278 -25 l-238 -4 0 286 0 286
173 0 c123 0 190 -4 232 -15z m-160 -1044 c128 -15 186 -42 270 -125 78 -77
110 -130 147 -246 20 -66 23 -95 23 -230 -1 -136 -3 -162 -23 -209 -46 -116
-119 -192 -224 -234 -46 -18 -80 -21 -245 -25 l-193 -4 0 321 0 321 166 0
c170 0 195 5 214 41 16 29 -4 83 -36 98 -15 7 -86 11 -184 11 l-160 0 0 145 0
145 83 0 c45 0 118 -4 162 -9z m-393 -107 c2 -9 2 -52 0 -95 l-4 -79 -197 0
c-185 0 -200 -1 -225 -21 -20 -16 -26 -29 -26 -59 0 -66 13 -70 247 -70 l203
0 0 -320 0 -320 -320 0 -320 0 0 490 0 490 319 0 c286 0 320 -2 323 -16z"/>
<path d="M2250 2815 c-18 -21 -17 -589 1 -611 16 -20 188 -19 256 1 127 38
170 182 87 290 l-34 45 20 40 c48 94 7 197 -95 237 -47 18 -220 17 -235 -2z
m210 -358 c35 -18 50 -53 38 -88 -13 -37 -35 -49 -92 -49 l-46 0 0 75 0 75 38
0 c20 0 48 -6 62 -13z"/>
<path d="M5164 2830 c-50 -15 -125 -71 -161 -118 -71 -94 -82 -239 -27 -348
36 -71 109 -137 182 -164 74 -28 193 -24 267 9 87 39 85 34 85 206 0 130 -2
154 -16 159 -9 3 -62 6 -118 6 -113 0 -136 -10 -136 -62 0 -37 29 -58 82 -58
l46 0 6 -45 c9 -54 -5 -82 -42 -92 -102 -27 -206 32 -241 136 -52 155 124 309
257 225 25 -17 29 -15 90 34 42 33 43 35 25 54 -37 42 -94 61 -183 64 -47 2
-99 -1 -116 -6z"/>
<path d="M6970 4551 c-5 -11 -10 -84 -10 -165 l0 -146 -190 0 -190 0 0 -410 0
-410 190 0 189 0 3 -131 c3 -122 5 -133 25 -146 19 -13 24 -12 42 6 19 19 21
33 21 146 l0 125 190 0 190 0 0 410 0 410 -190 0 -190 0 0 145 c0 132 -2 147
-20 165 -25 25 -46 25 -60 1z m313 -418 c4 -3 0 -15 -10 -25 -15 -17 -37 -18
-268 -18 -235 0 -253 1 -269 19 -13 15 -14 20 -4 24 19 8 544 8 551 0z m45
-398 c0 -88 -3 -169 -7 -179 -7 -17 -9 -17 -29 9 -21 27 -22 36 -22 268 0 236
0 241 23 265 l22 24 6 -114 c4 -62 7 -185 7 -273z m-609 357 c5 -9 11 -128 12
-264 3 -229 2 -248 -15 -267 -11 -12 -23 -21 -28 -21 -9 0 -11 532 -1 556 7
19 20 18 32 -4z m451 -252 c0 -82 -3 -150 -6 -150 -4 0 -33 23 -65 51 l-58 50
-3 67 -3 67 -34 3 -33 3 4 -66 c4 -67 4 -67 -30 -94 -19 -14 -49 -38 -67 -53
-18 -16 -35 -28 -39 -28 -3 0 -6 68 -6 150 l0 150 170 0 170 0 0 -150z m97
-282 c13 -12 23 -24 23 -27 0 -3 -21 -5 -47 -4 -27 1 -157 2 -291 2 l-243 1
28 25 28 24 239 1 c233 0 240 -1 263 -22z"/>
<path d="M460 4125 l-304 -304 194 -198 c107 -109 245 -250 307 -313 l113
-115 305 306 c168 169 305 313 305 319 0 16 -590 610 -605 610 -5 0 -147 -137
-315 -305z m550 -92 l165 -163 -117 0 c-89 0 -118 3 -118 13 0 26 -52 88 -90
107 l-40 20 0 106 c0 100 1 106 17 93 10 -8 92 -87 183 -176z m-282 75 l-3
-101 -40 -22 c-26 -15 -49 -38 -65 -69 l-25 -46 -110 0 -110 0 170 170 c93 94
173 170 178 170 4 0 6 -46 5 -102z m96 -219 c35 -28 36 -86 2 -118 -37 -34
-94 -26 -119 17 -47 81 43 159 117 101z m-268 -109 c33 0 44 -4 49 -19 8 -27
75 -91 102 -97 22 -6 23 -9 23 -125 0 -65 -1 -119 -3 -119 -1 0 -85 84 -187
186 l-185 186 79 -6 c43 -3 98 -6 122 -6z m448 -172 c-98 -101 -182 -185 -188
-187 -5 -2 -7 17 -3 50 4 30 7 84 7 120 0 65 1 67 30 79 32 13 90 76 90 97 0
9 29 13 103 16 56 1 110 4 121 5 11 1 -54 -72 -160 -180z"/>
<path d="M6970 3041 c-6 -12 -10 -91 -10 -188 l0 -168 -107 -103 -107 -103
107 -107 107 -107 0 -152 c0 -83 4 -163 10 -177 12 -32 54 -36 70 -7 6 11 10
88 10 178 l0 158 107 107 107 107 -107 102 -107 101 0 170 c0 97 -4 178 -10
189 -6 11 -21 19 -35 19 -14 0 -29 -8 -35 -19z m104 -500 c68 -69 67 -73 -18
-146 l-54 -46 -52 48 c-81 75 -81 76 -14 144 32 33 63 59 69 59 6 0 37 -26 69
-59z"/>
<path d="M732 2894 c-18 -13 -22 -24 -22 -74 0 -59 -1 -60 -40 -85 -23 -14
-49 -40 -60 -57 -19 -31 -22 -42 -35 -120 l-6 -38 -89 0 c-87 0 -90 -1 -96
-25 -11 -44 9 -55 101 -55 l83 0 7 -37 c11 -66 44 -122 91 -154 43 -29 44 -31
44 -87 0 -63 5 -74 36 -90 18 -10 27 -8 48 9 22 18 26 28 26 75 0 53 2 57 53
107 51 50 77 103 77 156 0 20 5 21 88 21 93 0 112 8 112 46 0 29 -16 34 -115
34 l-82 0 -7 51 c-4 29 -16 69 -26 89 -19 37 -73 90 -91 90 -5 0 -9 25 -9 55
0 46 -4 60 -25 80 -28 29 -33 30 -63 9z m73 -232 c35 -29 55 -65 55 -99 l0
-33 -100 0 c-94 0 -100 1 -100 20 0 57 59 130 104 130 11 -1 30 -8 41 -18z
m65 -236 c0 -53 -62 -126 -107 -126 -50 0 -103 58 -103 115 l0 25 105 0 c83 0
105 -3 105 -14z"/>
<path d="M6486 1574 c-8 -21 -8 -666 1 -921 l6 -203 469 0 468 0 -2 568 -3
567 -466 3 c-419 2 -467 1 -473 -14z m814 -90 c0 -4 -7 -16 -17 -26 -15 -16
-36 -18 -258 -18 -133 0 -276 -3 -318 -6 l-77 -7 0 -418 c0 -229 -3 -424 -6
-433 -3 -9 -15 -16 -25 -16 -18 0 -19 15 -19 459 l0 460 23 4 c39 7 697 8 697
1z m10 -454 c0 -312 0 -320 -20 -320 -26 0 -44 29 -75 125 -22 69 -24 86 -15
128 5 26 10 64 10 82 0 31 3 35 26 35 23 0 25 3 22 43 l-3 42 -55 5 c-38 4
-68 15 -98 35 -94 63 -238 35 -300 -58 -22 -32 -27 -54 -30 -111 -3 -88 20
-135 92 -183 42 -29 57 -33 112 -33 36 0 81 7 101 15 20 8 37 14 38 13 7 -10
55 -122 55 -129 0 -5 -101 -9 -225 -9 l-225 0 0 313 c0 173 3 317 7 320 3 4
136 7 295 7 l288 0 0 -320z m-262 110 c41 -25 76 -97 66 -137 -16 -64 -68
-103 -139 -103 -30 0 -45 8 -76 39 -35 34 -39 44 -39 87 0 109 98 168 188 114z
m262 -550 l0 -30 -277 0 c-199 0 -274 3 -263 11 11 7 12 12 3 15 -7 3 -9 12
-6 20 4 12 50 14 274 14 l269 0 0 -30z"/>
<path d="M267 1563 c-4 -7 -3 -313 2 -1026 l1 -87 508 2 507 3 0 555 0 555
-507 3 c-279 1 -509 -1 -511 -5z m920 -468 c1 -203 0 -407 -3 -452 l-6 -83
-404 0 -404 0 0 455 0 455 408 -2 407 -3 2 -370z"/>
<path d="M430 1016 c0 -217 3 -397 8 -399 4 -3 161 -2 350 1 l342 5 -2 391 -3
391 -347 3 -348 2 0 -394z m605 99 l0 -200 -255 0 -255 0 -3 190 c-1 104 0
195 3 202 3 11 57 13 257 11 l253 -3 0 -200z m-170 -345 c-96 -64 -125 -71
-228 -54 -30 5 -35 9 -26 20 17 20 1 17 -28 -6 -14 -11 -34 -20 -44 -20 -16 0
-19 8 -19 60 l0 60 218 0 217 0 -90 -60z"/>
</g>
</svg>
