<?xml version="1.0" standalone="no"?>
<!DOCTYPE svg PUBLIC "-//W3C//DTD SVG 20010904//EN"
 "http://www.w3.org/TR/2001/REC-SVG-20010904/DTD/svg10.dtd">
<svg version="1.0" xmlns="http://www.w3.org/2000/svg"
 width="1026.000000pt" height="1026.000000pt" viewBox="0 0 1026.000000 1026.000000"
 preserveAspectRatio="xMidYMid meet">
<metadata>
Created by potrace 1.16, written by Peter Selinger 2001-2019
</metadata>
<g transform="translate(0.000000,1026.000000) scale(0.100000,-0.100000)"
fill="#000000" stroke="none">
<path d="M4660 8605 l0 -475 495 0 495 0 0 469 c0 418 -2 470 -16 475 -9 3
-231 6 -495 6 l-479 0 0 -475z m830 336 c0 -5 -17 -23 -37 -40 l-38 -31 -263
0 -263 0 -39 33 c-22 17 -40 35 -40 40 0 4 153 7 340 7 202 0 340 -4 340 -9z
m-619 -339 l2 -244 -41 -41 -42 -42 0 325 0 325 39 -40 40 -40 2 -243z m649
-4 l0 -323 -45 47 -45 47 0 226 c0 148 4 234 11 248 14 27 60 77 71 77 4 0 8
-145 8 -322z m-400 152 c0 -13 -13 -28 -33 -40 -38 -23 -57 -56 -57 -102 0
-25 10 -41 45 -74 65 -60 61 -74 -20 -74 l-65 0 0 155 0 155 65 0 c59 0 65 -2
65 -20z m195 -135 l0 -150 -39 -3 c-49 -4 -86 5 -86 21 0 6 16 24 35 40 61 49
63 127 5 179 -52 47 -40 70 35 66 l50 -3 0 -150z m103 -279 c15 -8 38 -26 51
-40 l24 -26 -338 0 -339 0 30 31 c16 17 38 35 49 39 11 5 127 9 258 9 186 1
244 -2 265 -13z"/>
<path d="M1540 8340 l0 -690 638 2 637 3 3 306 2 306 -30 38 c-16 21 -30 41
-30 45 0 4 14 24 30 45 l30 38 0 298 0 299 -640 0 -640 0 0 -690z m1090 520
l-34 -30 -418 0 -418 0 -32 30 -33 29 485 0 485 0 -35 -29z m-880 -531 l0
-465 -35 -34 -35 -34 0 540 0 539 35 -40 34 -40 1 -466z m930 4 l0 -537 -35
34 -35 34 0 470 0 469 26 34 c14 18 29 33 35 33 5 0 9 -205 9 -537z m-170 134
l0 -263 -87 -36 -87 -35 -55 53 c-61 58 -141 105 -209 124 l-44 11 7 42 c18
103 124 178 230 162 37 -5 44 -3 59 19 9 14 16 28 16 30 0 17 -67 36 -122 36
-79 0 -148 -31 -201 -89 -41 -46 -53 -70 -68 -143 -6 -27 -16 -48 -24 -48 -7
0 -27 -3 -44 -6 l-31 -6 0 206 0 206 330 0 330 0 0 -263z m-408 -270 c97 -48
194 -152 213 -229 l7 -28 -183 0 c-101 0 -208 3 -236 6 l-53 7 0 128 c0 153
-2 151 116 146 63 -2 93 -9 136 -30z m516 -382 l37 -34 -479 -1 -480 0 34 35
34 35 408 0 408 0 38 -35z"/>
<path d="M7510 8729 l0 -300 31 -39 c33 -41 32 -56 -10 -94 -20 -19 -21 -27
-21 -333 l0 -313 615 0 615 0 0 690 0 690 -615 0 -615 0 0 -301z m1047 154
c22 -5 21 -7 -20 -54 l-42 -48 -372 -1 -373 0 0 -445 0 -445 373 -1 372 -1 44
-49 44 -49 -454 0 -453 0 39 40 c54 55 35 64 -20 10 l-45 -44 0 539 0 539 45
-44 c55 -54 74 -45 20 10 l-39 40 250 2 c137 2 330 4 429 5 99 1 190 -1 202
-4z m45 -482 c2 -252 2 -491 0 -530 l-4 -70 -44 47 -43 47 -1 438 0 439 38 43
c20 25 40 44 43 45 4 0 8 -206 11 -459z m-192 157 c-1 -94 -3 -109 -13 -92
-69 118 -190 175 -320 152 -93 -17 -163 -72 -201 -159 -14 -33 -14 -29 -15 89
l-1 122 275 0 275 0 0 -112z m-196 -43 c107 -45 157 -175 103 -269 -81 -143
-287 -145 -356 -4 -80 166 85 343 253 273z m-79 -468 c47 -1 80 5 101 16 31
16 32 16 70 -18 l39 -34 -214 -1 -215 0 33 34 32 33 42 -15 c23 -8 74 -15 112
-15z"/>
<path d="M8064 8417 c-26 -24 -37 -43 -41 -74 -5 -40 -3 -46 35 -83 31 -31 47
-40 73 -40 46 0 92 30 113 75 16 33 16 41 4 73 -17 45 -69 82 -115 82 -24 0
-43 -9 -69 -33z"/>
<path d="M3488 8658 c-11 -11 -18 -27 -16 -36 7 -35 46 -43 211 -40 144 3 160
5 173 22 17 24 17 28 1 50 -12 16 -33 19 -182 21 -154 2 -169 1 -187 -17z"/>
<path d="M6405 8660 c-15 -17 -16 -24 -7 -45 6 -13 22 -27 35 -30 13 -4 101
-5 195 -3 157 3 172 5 186 23 20 26 20 31 -4 55 -19 19 -33 20 -203 20 -171 0
-185 -1 -202 -20z"/>
<path d="M3503 8510 c-30 -12 -31 -55 -3 -70 27 -15 292 -11 322 4 29 15 35
46 12 63 -21 15 -294 18 -331 3z"/>
<path d="M6398 8509 c-23 -13 -23 -42 -1 -60 12 -11 60 -14 205 -14 176 0 191
1 204 19 18 25 18 31 -2 50 -13 13 -45 16 -202 16 -108 0 -194 -5 -204 -11z"/>
<path d="M3788 8223 l-308 -3 -6 -26 c-14 -55 -8 -55 357 -55 306 0 334 1 346
17 27 36 7 63 -49 68 -18 1 -171 1 -340 -1z"/>
<path d="M6450 8218 c-14 -5 -20 -17 -20 -37 0 -16 4 -32 8 -35 4 -3 88 -6
186 -7 164 -2 180 -1 192 16 17 23 17 27 0 51 -13 17 -28 19 -181 19 -91 0
-175 -3 -185 -7z"/>
<path d="M4875 7889 c-458 -62 -896 -253 -1235 -537 -112 -94 -282 -269 -378
-388 -291 -366 -473 -802 -533 -1279 -19 -149 -16 -484 5 -630 111 -762 584
-1453 1246 -1819 262 -145 563 -244 861 -282 167 -21 556 -15 719 11 244 39
481 115 715 230 414 203 773 555 1023 1002 285 510 379 1116 262 1696 -189
930 -891 1687 -1791 1931 -197 53 -316 68 -579 71 -135 2 -276 -1 -315 -6z
m205 -331 c0 -112 3 -247 7 -300 l6 -97 -196 -3 c-220 -3 -231 -7 -231 -73 0
-67 11 -70 224 -70 l190 0 0 -125 c0 -69 3 -149 6 -177 l7 -53 -386 0 c-212 0
-392 -3 -401 -6 -14 -6 -16 -121 -16 -1204 0 -1016 2 -1199 14 -1209 10 -9
118 -11 395 -11 l380 2 3 -179 3 -178 -198 -5 c-212 -5 -209 -5 -224 -59 -3
-15 0 -35 8 -50 l15 -26 197 -3 197 -2 2 -265 c1 -146 2 -291 3 -322 l0 -58
-75 3 c-411 16 -864 183 -1214 446 -290 218 -511 482 -677 810 -139 272 -225
567 -254 869 l-7 67 75 0 74 0 6 -87 c13 -191 79 -448 169 -652 213 -484 568
-865 1013 -1088 210 -106 444 -181 646 -209 l120 -16 25 23 c13 13 24 34 24
49 0 51 -17 60 -171 90 -423 84 -754 251 -1058 535 -306 286 -553 771 -610
1200 -6 44 -13 96 -16 116 l-5 36 58 6 c69 7 97 33 88 82 -9 42 -31 55 -93 55
-61 0 -58 -10 -43 140 31 298 93 514 215 755 115 227 252 412 436 591 320 309
662 478 1131 558 66 12 88 72 44 122 l-23 28 -84 -14 c-273 -44 -572 -152
-794 -289 -445 -273 -803 -723 -963 -1211 -63 -190 -112 -452 -112 -598 0 -79
-5 -84 -81 -80 l-64 3 2 95 c8 368 150 810 368 1145 426 654 1089 1054 1813
1093 l32 2 0 -202z m401 176 c214 -31 442 -104 664 -213 647 -319 1125 -943
1269 -1661 29 -142 49 -324 44 -390 l-3 -45 -65 0 -65 0 -7 70 c-32 306 -51
403 -115 595 -191 576 -615 1061 -1158 1321 -190 91 -413 160 -613 190 -80 12
-84 12 -104 -9 -25 -25 -28 -86 -6 -108 7 -8 54 -21 103 -29 434 -75 809 -269
1125 -585 369 -370 575 -825 616 -1362 l7 -88 -53 0 c-64 0 -90 -19 -90 -65 0
-44 29 -67 91 -73 l51 -5 -7 -66 c-10 -107 -52 -297 -90 -417 -145 -457 -446
-858 -833 -1111 -232 -152 -535 -263 -825 -303 -81 -11 -89 -14 -103 -41 -17
-33 -11 -70 16 -94 16 -15 29 -15 112 -5 267 32 522 116 776 254 569 308 998
955 1087 1639 8 65 15 125 15 133 0 11 16 14 70 14 l70 0 0 -29 c0 -54 -30
-265 -51 -351 -70 -299 -199 -593 -365 -832 -323 -465 -772 -782 -1293 -913
-133 -34 -308 -62 -423 -70 l-98 -6 0 325 0 326 183 0 c172 0 185 1 202 20 26
29 24 79 -4 102 -21 16 -43 18 -202 18 l-179 0 0 179 0 178 198 6 c135 4 215
10 256 21 185 51 313 188 368 395 25 95 27 289 5 402 -45 224 -161 391 -336
483 -94 49 -172 66 -343 73 l-148 6 0 88 0 89 228 0 c239 0 287 7 370 49 155
79 242 274 201 450 -36 156 -163 289 -328 343 -56 18 -98 22 -268 26 l-203 4
0 174 c0 159 2 174 18 174 311 3 340 5 361 24 26 24 27 66 2 97 -19 23 -24 24
-200 27 l-181 3 0 300 0 301 78 -7 c42 -4 120 -13 173 -21z m-401 -1509 l0
-285 -214 0 c-211 0 -215 0 -230 -22 -23 -33 -20 -75 9 -103 24 -25 25 -25
230 -25 l205 0 0 -145 0 -145 -320 0 -320 0 0 505 0 505 320 0 320 0 0 -285z
m555 270 c112 -30 197 -104 236 -205 23 -61 24 -100 3 -169 -18 -61 -69 -123
-128 -154 -38 -20 -57 -22 -278 -25 l-238 -4 0 286 0 286 173 0 c124 0 190 -4
232 -15z m-160 -1044 c121 -14 182 -41 265 -118 121 -112 180 -270 180 -485 0
-172 -40 -279 -137 -368 -88 -80 -134 -93 -360 -98 l-193 -4 0 321 0 321 166
0 c97 0 173 4 185 11 48 25 44 105 -7 128 -15 7 -87 11 -184 11 l-160 0 0 145
0 145 83 0 c45 0 118 -4 162 -9z m-392 -98 c2 -5 2 -47 -1 -95 l-5 -88 -197 0
c-184 0 -199 -1 -224 -21 -33 -26 -35 -75 -6 -107 20 -21 28 -22 225 -22 l205
0 0 -320 0 -320 -320 0 -320 0 0 490 0 490 319 0 c176 0 322 -3 324 -7z"/>
<path d="M3533 5649 c-18 -18 -19 -599 -1 -617 18 -18 193 -15 255 3 127 38
170 182 87 290 l-34 45 20 40 c40 79 15 177 -57 221 -33 21 -54 24 -148 27
-80 3 -113 0 -122 -9z m230 -377 c12 -13 20 -34 20 -53 0 -45 -32 -69 -94 -69
l-49 0 0 68 c0 38 3 72 8 76 13 14 94 -1 115 -22z"/>
<path d="M6421 5649 c-66 -26 -143 -100 -174 -167 -17 -37 -22 -66 -22 -137 0
-80 3 -97 30 -148 58 -116 173 -187 299 -187 76 0 179 30 212 61 23 22 24 27
24 175 0 129 -2 153 -16 158 -9 3 -62 6 -118 6 -113 0 -136 -10 -136 -62 0
-37 29 -58 83 -58 l46 0 6 -44 c8 -53 -6 -83 -43 -93 -102 -27 -206 32 -241
136 -52 156 124 309 257 224 21 -13 26 -13 50 3 15 9 39 28 54 42 27 25 27 26
10 45 -57 64 -218 87 -321 46z"/>
<path d="M8250 7374 c-6 -14 -10 -88 -10 -165 l0 -139 -190 0 -190 0 2 -407 3
-408 188 -3 187 -2 0 -125 c0 -112 2 -127 20 -145 16 -16 25 -18 39 -11 28 15
31 32 31 162 l0 119 190 0 190 0 0 410 0 410 -190 0 -190 0 0 143 c0 113 -3
147 -16 165 -21 30 -52 28 -64 -4z m313 -411 c4 -3 0 -15 -10 -25 -15 -17 -37
-18 -268 -18 -231 0 -253 1 -268 18 -10 10 -14 22 -10 25 8 9 548 9 556 0z
m45 -358 c0 -110 -3 -209 -7 -219 -7 -17 -9 -17 -29 9 -21 27 -22 36 -22 268
0 236 0 241 23 265 l22 24 6 -74 c4 -40 7 -163 7 -273z m-608 315 c6 -12 11
-115 12 -264 1 -225 0 -247 -17 -266 -10 -11 -22 -20 -27 -20 -9 0 -11 491 -2
539 7 36 19 40 34 11z m450 -250 c0 -82 -3 -150 -6 -150 -4 0 -33 23 -65 51
l-58 50 -3 67 -3 67 -34 3 -33 3 6 -64 7 -65 -37 -29 c-20 -15 -51 -40 -69
-55 -18 -16 -35 -28 -39 -28 -3 0 -6 68 -6 150 l0 150 170 0 170 0 0 -150z
m100 -285 l23 -24 -74 -3 c-41 -2 -172 -2 -292 0 l-217 3 27 24 c28 24 28 24
269 25 l241 0 23 -25z"/>
<path d="M1740 6955 l-305 -305 186 -187 c103 -104 241 -244 308 -313 l121
-125 305 306 c168 169 305 312 305 320 0 15 -589 609 -605 609 -5 0 -147 -137
-315 -305z m600 -139 l115 -116 -118 0 c-88 0 -117 3 -117 13 0 26 -52 88 -90
107 l-40 20 0 106 0 106 68 -60 c37 -33 119 -113 182 -176z m-332 122 l-3
-101 -40 -22 c-26 -15 -49 -38 -65 -69 l-25 -46 -110 0 -110 0 170 170 c93 94
173 170 178 170 4 0 6 -46 5 -102z m96 -219 c35 -28 36 -86 2 -118 -37 -34
-94 -26 -119 17 -47 81 43 159 117 101z m-225 -122 c9 -24 86 -98 107 -103 24
-6 24 -9 24 -125 0 -65 -1 -119 -3 -119 -1 0 -85 84 -187 186 l-185 185 120
-7 c67 -4 122 -11 124 -17z m405 -159 c-98 -101 -182 -185 -188 -187 -5 -2 -7
17 -3 50 4 30 7 84 7 120 0 65 1 67 30 79 32 13 90 76 90 97 0 9 29 13 103 16
56 1 110 4 121 5 11 1 -54 -72 -160 -180z"/>
<path d="M8250 5864 c-6 -14 -10 -99 -10 -188 l0 -163 -106 -102 -107 -101
108 -109 107 -109 -1 -149 c-2 -168 6 -203 43 -203 15 0 30 8 36 19 6 11 10
88 10 178 l0 158 107 107 108 108 -108 101 -107 101 0 169 c0 98 -4 179 -10
190 -16 29 -58 25 -70 -7z m104 -493 c68 -69 67 -73 -18 -146 l-54 -46 -52 48
c-81 75 -81 76 -14 144 32 33 63 59 69 59 6 0 37 -26 69 -59z"/>
<path d="M2012 5724 c-18 -13 -22 -25 -22 -74 0 -58 -1 -59 -42 -87 -48 -32
-88 -99 -88 -149 0 -62 -4 -64 -101 -64 -86 0 -89 -1 -95 -25 -11 -44 9 -55
101 -55 l83 0 7 -37 c11 -66 44 -122 91 -154 43 -29 44 -31 44 -87 0 -63 5
-74 36 -90 18 -10 27 -8 48 9 23 18 26 28 26 77 0 56 1 58 49 99 49 42 81 105
81 160 0 22 3 23 89 23 96 0 115 9 109 52 -3 22 -7 23 -99 26 l-97 3 -6 51
c-4 28 -16 68 -26 88 -19 37 -73 90 -91 90 -5 0 -9 25 -9 55 0 46 -4 60 -25
80 -28 29 -33 30 -63 9z m72 -229 c32 -24 56 -68 56 -102 l0 -33 -100 0 c-112
0 -116 3 -86 74 26 63 88 92 130 61z m66 -240 c0 -51 -61 -125 -102 -125 -55
0 -108 56 -108 115 l0 25 105 0 c85 0 105 -3 105 -15z"/>
<path d="M7766 4398 c-8 -31 -8 -476 1 -831 l6 -287 469 0 468 0 -2 568 -3
567 -466 3 -467 2 -6 -22z m814 -84 c0 -4 -7 -16 -17 -26 -15 -16 -36 -18
-258 -18 -133 0 -276 -3 -318 -6 l-77 -7 -2 -431 -3 -431 -22 -3 -23 -3 0 460
0 460 23 4 c39 7 697 8 697 1z m10 -454 c0 -312 0 -320 -20 -320 -26 0 -42 28
-74 126 -23 70 -25 87 -17 125 6 24 11 61 11 82 0 33 3 37 26 37 23 0 25 3 22
43 l-3 42 -55 5 c-38 4 -68 15 -98 35 -94 63 -238 35 -300 -58 -22 -32 -27
-54 -30 -111 -3 -86 19 -133 86 -180 54 -38 154 -48 216 -22 22 9 40 15 41 14
7 -10 55 -122 55 -129 0 -6 -96 -8 -222 -7 l-223 3 -3 305 c-1 168 0 310 3
317 3 10 70 13 295 13 l290 0 0 -320z m-270 115 c96 -49 98 -192 3 -231 -60
-26 -101 -18 -144 25 -35 35 -39 44 -39 91 0 47 4 56 39 91 43 44 88 51 141
24z m270 -555 l0 -30 -267 0 -268 0 -2 30 -2 30 269 0 270 0 0 -30z"/>
<path d="M1548 4393 c-2 -5 -2 -257 0 -561 l4 -552 506 2 507 3 0 555 0 555
-507 3 c-279 1 -508 -1 -510 -5z m920 -508 c2 -225 0 -429 -3 -452 l-6 -43
-405 0 -404 0 0 455 0 455 408 -2 407 -3 3 -410z"/>
<path d="M1710 3846 c0 -217 3 -397 8 -399 4 -3 161 -2 350 1 l342 5 -2 391
-3 391 -347 3 -348 2 0 -394z m605 99 l0 -200 -255 0 -255 0 -3 194 c-2 149 1
196 10 203 7 4 123 7 258 5 l245 -2 0 -200z m-91 -293 c-5 -5 -45 -32 -90 -60
-85 -55 -118 -62 -217 -46 -30 5 -35 9 -26 20 17 20 1 17 -28 -6 -14 -11 -34
-20 -44 -20 -16 0 -19 8 -19 60 l0 60 217 0 c119 0 213 -4 207 -8z"/>
<path d="M3523 2686 c-104 -34 -177 -98 -221 -196 -38 -80 -38 -202 0 -282 72
-155 243 -236 408 -194 166 43 266 172 264 341 -2 134 -74 250 -194 310 -66
33 -189 43 -257 21z m209 -165 c48 -31 98 -112 98 -160 0 -111 -97 -211 -203
-211 -149 0 -250 155 -187 285 38 79 96 115 186 115 49 0 68 -5 106 -29z"/>
<path d="M6329 2685 c-161 -52 -267 -225 -238 -389 35 -197 222 -325 415 -286
223 45 349 278 259 478 -33 73 -112 153 -182 184 -62 28 -189 34 -254 13z
m201 -150 c65 -34 110 -111 110 -188 0 -156 -185 -251 -312 -161 -65 46 -90
95 -85 174 4 97 54 162 145 191 33 10 108 2 142 -16z"/>
<path d="M2506 2674 c-3 -9 -6 -156 -6 -329 0 -264 2 -314 15 -325 11 -9 55
-11 162 -9 140 4 151 6 195 31 25 16 56 44 68 64 48 77 32 186 -36 242 l-35
29 26 49 c34 62 31 125 -9 185 -43 65 -86 79 -242 79 -111 0 -133 -2 -138 -16z
m247 -142 c22 -19 22 -70 0 -94 -12 -13 -30 -18 -70 -18 l-53 0 0 64 c0 59 2
65 23 69 34 6 80 -4 100 -21z m44 -264 c30 -28 30 -68 -1 -97 -20 -19 -32 -22
-92 -19 l-69 3 -3 54 c-5 79 -3 81 75 81 55 0 71 -4 90 -22z"/>
<path d="M4345 2677 c-3 -7 -4 -158 -3 -337 l3 -325 51 -3 c77 -4 84 7 83 129
-1 55 1 102 4 105 11 11 28 -8 89 -99 92 -139 90 -137 169 -137 37 0 71 5 74
10 7 12 -4 32 -89 157 -33 48 -56 88 -50 90 34 12 79 50 104 90 55 86 36 211
-43 280 -20 18 -53 37 -74 42 -56 16 -312 14 -318 -2z m290 -152 c30 -29 33
-83 7 -115 -20 -25 -101 -44 -144 -34 -28 6 -28 7 -28 83 0 43 3 81 7 84 3 4
35 7 70 7 55 0 68 -4 88 -25z"/>
<path d="M5221 2672 c-12 -23 -14 -425 -3 -572 l7 -85 140 1 c120 0 148 4 197
23 75 29 147 95 183 168 27 51 30 68 29 143 0 64 -6 97 -22 133 -30 66 -104
142 -171 174 -51 25 -68 27 -203 31 -139 4 -147 3 -157 -16z m250 -133 c39 -9
62 -21 93 -53 74 -73 83 -166 25 -246 -38 -53 -96 -79 -171 -80 l-58 0 0 195
0 195 30 0 c16 0 52 -5 81 -11z"/>
<path d="M7126 2674 c-11 -28 -7 -624 4 -645 8 -15 21 -19 58 -19 86 0 86 1
78 199 -4 94 -3 171 1 171 5 0 91 -83 193 -185 153 -153 189 -185 210 -183
l25 3 6 275 c4 151 4 303 1 338 l-5 62 -62 0 c-48 0 -64 -4 -69 -16 -3 -9 -6
-94 -6 -190 0 -96 -4 -174 -9 -174 -4 0 -91 86 -192 190 -182 189 -217 215
-233 174z"/>
<path d="M3325 1658 c-120 -45 -197 -159 -197 -291 0 -121 75 -235 183 -280
175 -72 348 30 382 227 10 59 9 67 -8 86 -16 18 -30 20 -131 20 -89 0 -116 -3
-128 -16 -20 -19 -20 -35 -2 -60 12 -16 26 -19 90 -17 53 1 76 -2 76 -10 -1
-34 -42 -98 -79 -123 -36 -23 -48 -26 -101 -22 -69 5 -100 23 -145 87 -26 37
-30 51 -30 111 0 60 4 74 30 112 59 83 156 112 249 73 39 -16 39 -16 65 9 30
31 24 49 -29 80 -40 23 -178 32 -225 14z"/>
<path d="M4093 1664 c-13 -6 -209 -489 -219 -542 -8 -38 8 -62 41 -62 30 0 45
19 76 99 l27 66 87 8 c60 5 92 4 99 -3 6 -6 25 -43 41 -82 17 -39 38 -76 47
-81 24 -16 68 6 68 34 0 11 -28 93 -61 182 -34 89 -78 209 -100 266 -43 118
-58 134 -106 115z"/>
<path d="M4605 1653 c-15 -15 -16 -45 -13 -290 3 -258 4 -275 22 -289 14 -10
50 -14 125 -14 113 0 121 2 140 38 11 20 10 27 -4 42 -14 15 -34 20 -99 22
l-81 3 -5 243 c-4 201 -8 244 -20 252 -23 14 -47 12 -65 -7z"/>
<path d="M5016 1654 c-14 -13 -16 -54 -16 -289 0 -235 2 -276 16 -289 12 -13
39 -16 128 -16 97 0 115 3 129 18 20 22 22 53 5 70 -7 7 -44 12 -95 12 l-82 0
-3 245 c-3 205 -5 247 -18 255 -22 14 -47 12 -64 -6z"/>
<path d="M5559 1652 c-18 -12 -19 -31 -19 -287 0 -235 2 -276 16 -289 12 -13
39 -16 132 -16 128 0 165 11 170 48 6 42 -14 52 -103 52 -117 0 -115 -2 -115
86 l0 74 73 0 c60 0 77 4 91 19 41 45 -3 81 -101 81 l-63 0 0 70 0 70 88 0
c97 0 132 14 132 54 0 44 -23 51 -158 51 -86 0 -130 -4 -143 -13z"/>
<path d="M6138 1660 c-16 -10 -18 -35 -18 -293 0 -297 1 -307 45 -307 38 0 45
19 45 127 0 57 4 103 9 103 5 0 50 -49 101 -110 51 -60 101 -112 111 -115 46
-15 84 28 57 65 -7 10 -40 51 -73 91 -55 66 -58 73 -41 83 99 58 138 153 101
244 -19 44 -50 79 -90 100 -37 19 -221 28 -247 12z m223 -119 c34 -35 37 -72
10 -117 -20 -32 -51 -44 -116 -44 -41 0 -45 10 -45 105 0 82 1 83 73 84 41 1
53 -4 78 -28z"/>
<path d="M6767 1664 c-17 -18 -2 -57 78 -195 l85 -147 0 -119 c0 -125 6 -143
45 -143 39 0 45 19 45 129 0 132 8 160 71 256 83 128 110 184 98 206 -14 26
-61 25 -86 -3 -11 -13 -44 -65 -73 -117 l-53 -94 -21 37 c-102 181 -109 191
-146 194 -20 2 -39 0 -43 -4z"/>
<path d="M1549 1514 c-35 -37 -33 -98 4 -130 40 -34 90 -32 128 5 37 37 38 79
3 120 -35 42 -98 44 -135 5z"/>
<path d="M8585 1515 c-19 -18 -25 -35 -25 -65 0 -85 90 -121 151 -61 41 41 37
102 -10 138 -28 22 -89 16 -116 -12z"/>
<path d="M1826 1471 c-19 -21 -13 -47 15 -61 10 -6 140 -10 312 -10 272 0 295
1 310 18 22 24 21 35 -1 55 -16 15 -53 17 -319 17 -279 0 -301 -1 -317 -19z"/>
<path d="M7786 1474 c-22 -21 -20 -51 3 -64 12 -6 133 -10 324 -10 282 0 305
1 320 18 21 23 21 36 1 56 -13 14 -57 16 -324 16 -267 0 -311 -2 -324 -16z"/>
</g>
</svg>
