<?xml version="1.0" standalone="no"?>
<!DOCTYPE svg PUBLIC "-//W3C//DTD SVG 20010904//EN"
 "http://www.w3.org/TR/2001/REC-SVG-20010904/DTD/svg10.dtd">
<svg version="1.0" xmlns="http://www.w3.org/2000/svg"
 width="668.000000pt" height="688.000000pt" viewBox="0 0 668.000000 688.000000"
 preserveAspectRatio="xMidYMid meet">
<metadata>
Created by potrace 1.16, written by Peter Selinger 2001-2019
</metadata>
<g transform="translate(0.000000,688.000000) scale(0.100000,-0.100000)"
fill="#000000" stroke="none">
<path d="M0 3440 l0 -3440 3340 0 3340 0 0 3440 0 3440 -3340 0 -3340 0 0
-3440z m3615 3320 c272 -16 463 -53 730 -143 507 -172 929 -438 1310 -828 168
-172 284 -315 411 -506 252 -379 418 -795 508 -1273 62 -329 62 -843 0 -1154
-98 -492 -262 -888 -532 -1286 -457 -672 -1083 -1118 -1847 -1313 -302 -78
-581 -104 -985 -94 -383 10 -707 77 -1060 219 -844 341 -1489 1002 -1834 1879
-151 386 -218 744 -217 1169 1 754 223 1413 688 2040 116 157 481 524 651 656
259 200 614 385 957 497 187 62 504 131 640 139 128 9 425 8 580 -2z"/>
<path d="M3112 6579 c-256 -23 -576 -102 -832 -206 -654 -265 -1171 -717
-1559 -1365 -241 -403 -400 -929 -418 -1385 l-6 -153 86 0 c101 0 107 5 107
92 0 29 7 109 15 178 70 604 286 1116 665 1579 287 350 596 600 964 781 258
126 453 191 778 256 l181 37 28 -31 c50 -56 48 -112 -4 -146 -12 -9 -99 -32
-192 -52 -233 -49 -463 -127 -660 -222 -289 -141 -483 -280 -721 -517 -195
-194 -265 -276 -377 -442 -288 -430 -439 -877 -482 -1425 l-7 -88 56 0 c79 0
121 -20 135 -63 24 -72 -20 -116 -124 -125 -36 -2 -65 -6 -65 -8 0 -18 44
-308 56 -369 107 -537 438 -1118 846 -1483 375 -336 839 -563 1348 -662 80
-16 157 -33 171 -39 32 -12 59 -47 59 -76 0 -26 -36 -84 -57 -92 -48 -19 -392
47 -597 114 -583 190 -1059 527 -1421 1008 -325 432 -540 968 -587 1466 l-11
127 -36 6 c-20 3 -64 6 -99 6 l-63 0 5 -42 c4 -24 11 -83 16 -133 6 -49 24
-157 41 -240 177 -883 686 -1623 1429 -2076 378 -230 813 -375 1273 -424 80
-8 158 -15 172 -15 l25 0 0 430 0 430 -258 0 -258 0 -17 29 c-23 39 -22 103 2
132 19 24 21 24 248 27 125 1 243 5 261 8 l32 5 0 112 c0 62 -3 169 -7 239
l-6 127 -396 -6 c-218 -3 -454 -3 -524 2 l-128 7 3 1599 c2 1294 5 1600 16
1611 10 10 121 14 525 16 281 2 513 5 515 7 3 2 1 107 -3 233 l-7 229 -247 7
c-283 8 -294 11 -299 84 -6 81 21 96 188 106 52 3 157 6 233 6 l137 0 0 228
c0 125 -3 305 -7 400 -6 166 -7 172 -27 171 -12 -1 -63 -5 -114 -10z m-1608
-2810 c56 -15 121 -85 136 -150 15 -61 8 -125 -20 -179 l-20 -39 40 -57 c80
-114 81 -229 3 -315 -52 -57 -98 -77 -205 -89 -128 -15 -234 -5 -251 24 -9 15
-12 119 -12 396 0 405 1 416 52 422 51 6 238 -3 277 -13z"/>
<path d="M1310 3550 l0 -90 65 0 c75 0 108 13 124 47 18 40 13 63 -23 99 -32
32 -38 34 -100 34 l-66 0 0 -90z"/>
<path d="M1359 3303 c-20 -5 -29 -44 -29 -129 l0 -64 60 0 c70 0 104 13 119
47 24 52 9 103 -37 126 -30 16 -88 26 -113 20z"/>
<path d="M3450 6192 l0 -399 232 -7 c277 -8 297 -15 298 -102 0 -34 -18 -69
-43 -85 -1 -1 -110 -4 -242 -8 l-240 -6 -3 -232 -2 -233 162 0 c436 -1 565
-37 734 -205 134 -132 191 -272 181 -440 -14 -230 -155 -418 -366 -487 -61
-19 -93 -22 -389 -26 l-323 -4 3 -117 3 -116 50 -2 c166 -8 371 -26 428 -38
203 -42 411 -212 522 -426 89 -171 121 -348 112 -612 -6 -181 -18 -238 -76
-362 -80 -170 -196 -280 -368 -350 -89 -36 -272 -54 -555 -55 l-118 0 0 -240
0 -240 218 0 c230 0 282 -7 307 -43 23 -33 19 -84 -10 -112 -19 -20 -35 -25
-77 -26 -29 -1 -60 -3 -68 -4 -8 -1 -95 -3 -192 -4 l-178 -1 0 -430 0 -430 60
0 c76 0 344 34 474 61 248 50 426 107 640 205 340 155 569 310 825 559 546
531 880 1206 966 1950 8 71 15 136 15 143 0 10 -22 12 -92 10 l-93 -3 -7 -45
c-4 -25 -14 -99 -23 -165 -104 -781 -584 -1585 -1206 -2017 -352 -245 -790
-417 -1231 -483 -137 -21 -170 -20 -196 8 -41 44 -41 114 1 141 12 8 98 29
190 45 314 56 538 130 792 259 255 130 435 262 651 477 372 370 623 816 750
1329 37 150 80 416 71 439 -3 9 -27 17 -62 21 -101 12 -133 43 -119 115 9 46
33 61 108 68 47 4 70 11 74 21 8 22 -23 285 -52 443 -49 263 -123 484 -246
735 -261 532 -725 995 -1271 1269 -201 102 -413 172 -690 230 -95 20 -184 43
-196 51 -31 20 -32 99 -2 138 27 34 73 34 251 1 248 -45 476 -124 743 -255
291 -143 524 -309 751 -535 261 -260 461 -539 618 -865 157 -328 219 -548 271
-975 15 -115 28 -220 31 -232 4 -22 9 -23 89 -23 l85 0 0 109 c0 254 -72 612
-185 924 -355 980 -1179 1740 -2155 1987 -164 42 -519 99 -617 100 -10 0 -13
-86 -13 -398z m1909 -2421 c61 -19 121 -62 121 -87 0 -14 -76 -78 -112 -95
-21 -9 -32 -7 -66 10 -122 62 -286 -20 -327 -164 -22 -73 -14 -126 28 -196 59
-98 160 -149 265 -133 67 10 82 30 82 114 l0 70 -42 1 c-94 1 -147 43 -132
105 11 42 55 54 203 54 119 0 131 -2 141 -19 13 -25 13 -361 0 -395 -11 -31
-66 -66 -140 -92 -41 -14 -82 -19 -161 -18 -99 0 -109 2 -180 35 -92 44 -162
111 -215 204 l-39 70 0 130 c0 125 1 133 30 190 57 112 179 212 289 235 61 13
182 4 255 -19z"/>
<path d="M2402 4255 c2 -366 6 -667 9 -669 2 -2 192 -7 422 -11 l417 -7 0 195
0 196 -274 3 c-274 3 -274 3 -300 27 -49 46 -42 142 11 162 13 5 146 9 294 9
l269 0 0 380 0 380 -426 0 -427 0 5 -665z"/>
<path d="M3450 4539 l0 -382 308 6 c173 3 322 10 341 16 85 26 183 132 216
232 71 213 -124 465 -385 499 -41 5 -166 10 -277 10 l-203 0 0 -381z"/>
<path d="M3452 3329 l3 -194 228 -5 229 -5 24 -28 c33 -39 33 -99 -1 -132 -19
-20 -35 -25 -82 -26 -32 -1 -65 -3 -73 -4 -8 -1 -86 -3 -172 -4 l-158 -1 0
-427 0 -426 228 6 c262 8 335 18 413 59 68 35 156 123 202 201 56 93 72 175
72 367 -1 257 -38 395 -146 540 -64 86 -170 178 -242 209 -79 34 -195 52 -365
58 l-162 6 2 -194z"/>
<path d="M2400 2735 l0 -655 425 0 425 0 0 425 0 425 -137 1 c-76 0 -203 4
-282 8 -136 6 -144 8 -163 31 -27 33 -19 93 16 129 l26 26 270 3 270 3 0 129
0 130 -425 0 -425 0 0 -655z"/>
</g>
</svg>
